<?xml version="1.0" encoding="utf-8"?>
<!-- Generator: Adobe Illustrator 16.0.0, SVG Export Plug-In . SVG Version: 6.00 Build 0)  -->
<!DOCTYPE svg PUBLIC "-//W3C//DTD SVG 1.1//EN" "http://www.w3.org/Graphics/SVG/1.1/DTD/svg11.dtd">
<svg version="1.1" xmlns="http://www.w3.org/2000/svg" xmlns:xlink="http://www.w3.org/1999/xlink" x="0px" y="0px"
	 width="92.996px" height="164.991px" viewBox="0 0 92.996 164.991" enable-background="new 0 0 92.996 164.991"
	 xml:space="preserve">
<g id="Layer_1">
</g>
<g id="Layer_2">
	<path fill="#FFFFFF" d="M81.365,54.524c-1.941-2.33-19.979-25.367-29.244-37.223l-3.585-4.586L45,17.338
		c-6.419,8.394-27.772,36.037-27.987,36.315c-1.52,1.967-1.157,4.793,0.81,6.312c1.967,1.52,4.793,1.157,6.312-0.81
		c0.148-0.192,10.331-13.374,18.756-24.309c-2.139,22.132-9.324,72.505-32.202,111.618c-1.255,2.146-0.533,4.902,1.612,6.157
		c0.714,0.417,1.496,0.616,2.268,0.616c1.546,0,3.052-0.798,3.889-2.229C43.876,107.556,50.556,52.57,52.22,32.036
		c8.158,10.425,20.527,26.206,22.23,28.25c0.89,1.068,2.17,1.619,3.459,1.619c1.016,0,2.038-0.342,2.879-1.043
		C82.698,59.271,82.956,56.433,81.365,54.524z"/>
</g>
</svg>
