<?xml version="1.0" encoding="utf-8"?>
<!-- Generator: Adobe Illustrator 16.0.0, SVG Export Plug-In . SVG Version: 6.00 Build 0)  -->
<!DOCTYPE svg PUBLIC "-//W3C//DTD SVG 1.1//EN" "http://www.w3.org/Graphics/SVG/1.1/DTD/svg11.dtd">
<svg version="1.1" id="Layer_2" xmlns="http://www.w3.org/2000/svg" xmlns:xlink="http://www.w3.org/1999/xlink" x="0px" y="0px"
	 width="146.667px" height="97.333px" viewBox="0 0 146.667 97.333" enable-background="new 0 0 146.667 97.333"
	 xml:space="preserve">
<path fill="#FFFFFF" d="M134.078,84.156c9.584-2.178,4.922-7.863,2.627-9.172c-9.966-6.151-23.229-26.177-27.761-33.851
	c-1.123-1.903-3.578-2.535-5.478-1.411c-1.902,1.123-2.534,3.575-1.412,5.478c1.336,2.262,10.12,16.896,20.157,27.662
	c-22.375-3.601-56.028-17.721-56.407-17.881l-0.202-0.079C41.363,46.195,15.539,9.498,15.28,9.128
	c-1.263-1.812-3.756-2.255-5.569-0.992C7.9,9.4,7.456,11.893,8.719,13.705c1.11,1.592,27.467,39.059,54.075,48.689
	c2.262,0.951,28.359,11.823,50.313,16.815c-12.247,1.813-23.192,3.388-24.607,3.457c-2.209,0-4,1.791-4,4s1.791,4,4,4
	C90.835,90.667,118.837,86.468,134.078,84.156L134.078,84.156z"/>
</svg>
