<?xml version="1.0" encoding="utf-8"?>
<!-- Generator: Adobe Illustrator 16.0.0, SVG Export Plug-In . SVG Version: 6.00 Build 0)  -->
<!DOCTYPE svg PUBLIC "-//W3C//DTD SVG 1.1//EN" "http://www.w3.org/Graphics/SVG/1.1/DTD/svg11.dtd">
<svg version="1.1" id="Layer_1" xmlns="http://www.w3.org/2000/svg" xmlns:xlink="http://www.w3.org/1999/xlink" x="0px" y="0px"
	 width="215px" height="68.667px" viewBox="0 0 215 68.667" enable-background="new 0 0 215 68.667" xml:space="preserve">
<path fill="#FFFFFF" d="M207.325,42.885c-36.919-20.184-69.678-20.56-73.001-20.554c-33.188-2.579-81.628,8.396-105.16,14.449
	l28.93-20.894c2.239-1.617,2.743-4.742,1.126-6.981c-1.617-2.238-4.742-2.741-6.98-1.126L9.163,38.891l0,0
	c0,0-10.122,7.192,3.253,11.192l-0.006,0.008L60.398,62.67c0.425,0.111,0.852,0.164,1.271,0.164c2.218,0,4.244-1.487,4.833-3.733
	c0.7-2.671-0.897-5.404-3.568-6.104l-29.985-7.86c23.65-5.978,70.041-16.263,100.86-13.817l0.211,0.018l0.213-0.004
	c0.295,0.001,32.731-0.253,68.774,19.449c0.685,0.375,1.425,0.553,2.154,0.553c1.592,0,3.135-0.847,3.952-2.343
	C210.307,46.811,209.505,44.076,207.325,42.885z"/>
</svg>
