<?xml version="1.0" encoding="utf-8"?>
<!-- Generator: Adobe Illustrator 16.0.0, SVG Export Plug-In . SVG Version: 6.00 Build 0)  -->
<!DOCTYPE svg PUBLIC "-//W3C//DTD SVG 1.1//EN" "http://www.w3.org/Graphics/SVG/1.1/DTD/svg11.dtd">
<svg version="1.1" id="Layer_1" xmlns="http://www.w3.org/2000/svg" xmlns:xlink="http://www.w3.org/1999/xlink" x="0px" y="0px"
	 width="105.333px" height="105.334px" viewBox="0 0 105.333 105.334" enable-background="new 0 0 105.333 105.334"
	 xml:space="preserve">
<g>
	<circle fill="#7F1D78" cx="53.499" cy="52.498" r="43.834"/>
</g>
<g>
	<path fill="#FFFFFF" d="M49.865,41.66l0.059,0.502c0.007,1.129-0.292,2.46-0.899,3.994c-0.685,1.752-1.495,2.994-2.429,3.725
		c-0.53,0.42-1.074,0.635-1.635,0.643c-0.296,0-0.564-0.068-0.806-0.205c-0.242-0.136-0.362-0.34-0.362-0.613
		c0.351-0.366,0.525-1.304,0.525-2.814c0-0.888-0.074-2.207-0.222-3.958c-0.148-1.752-0.222-3.063-0.222-3.936l0.07-2.616
		c0-0.42-0.087-0.987-0.263-1.699c-0.175-0.712-0.263-1.216-0.263-1.512c0-0.552,0.611-0.829,1.833-0.829h0.362
		c1.627,0,2.807,0.911,3.538,2.733c0.514,1.269,0.771,3.021,0.771,5.255v1.109C49.885,41.508,49.865,41.583,49.865,41.66z
		 M45.463,46.845v2.289c0.6-0.389,1.121-0.932,1.565-1.629c0.444-0.696,0.782-1.458,1.016-2.283c0.436-1.58,0.654-3.157,0.654-4.729
		c0-1.806-0.226-3.23-0.677-4.274c-0.459-1.074-1.028-1.782-1.705-2.125c-0.42-0.218-0.896-0.323-1.425-0.315v0.023
		c0,1.44,0.095,3.608,0.286,6.504S45.463,45.381,45.463,46.845z"/>
	<path fill="#FFFFFF" d="M56.593,50.453c-0.49,0-0.735-0.206-0.735-0.619v-3.118c-0.226-0.156-0.633-0.288-1.22-0.397
		c-0.588-0.109-1.112-0.179-1.571-0.21c-0.164,0.28-0.298,0.685-0.403,1.214s-0.214,1.063-0.327,1.6s-0.263,0.961-0.45,1.273
		c-0.623,0-0.973-0.16-1.051-0.479c0.218-0.311,0.572-1.903,1.063-4.776c0.491-2.873,0.894-5.121,1.209-6.744
		c0.315-1.623,0.656-2.987,1.021-4.093s0.716-1.658,1.051-1.658c0.334,0,0.591,0.07,0.771,0.21c0,0.568,0.156,2.106,0.467,4.613
		c0.311,2.507,0.467,4.128,0.467,4.863c0,0.736,0.083,1.958,0.251,3.667s0.251,2.991,0.251,3.848
		C57.388,50.185,57.123,50.453,56.593,50.453z M55.589,42.647c-0.14-1.413-0.267-2.76-0.38-4.041
		c-0.113-1.28-0.169-2.055-0.169-2.324s0.003-0.422,0.012-0.461c-0.25,0.257-0.609,1.686-1.081,4.286
		c-0.471,2.6-0.722,4.247-0.753,4.939c0.662,0.179,1.216,0.269,1.664,0.269c0.447,0,0.765-0.023,0.952-0.07
		C55.811,44.926,55.729,44.06,55.589,42.647z"/>
	<path fill="#FFFFFF" d="M60.799,50.173l0.117-4.624c0-0.467-0.076-1.158-0.228-2.073c-0.152-0.915-0.228-1.65-0.228-2.207
		s-0.095-1.234-0.286-2.032c-0.191-0.798-0.403-1.516-0.637-2.154c-0.615-1.674-0.922-3.102-0.922-4.286
		c0-0.117,0.068-0.216,0.204-0.298c0.136-0.082,0.278-0.123,0.426-0.123s0.306,0.183,0.473,0.549
		c0.167,0.366,0.321,0.833,0.461,1.401s0.27,1.137,0.391,1.705c0.121,0.568,0.231,1.119,0.333,1.652s0.175,0.877,0.222,1.033
		c0.031-0.14,0.068-0.473,0.111-0.999c0.042-0.525,0.091-1.064,0.146-1.617c0.062-0.561,0.14-1.121,0.233-1.682
		c0.21-1.284,0.527-1.927,0.951-1.927s0.637,0.086,0.637,0.257c0,0.895-0.191,2.23-0.572,4.005
		c-0.381,1.775-0.572,3.122-0.572,4.041l-0.07,0.829v0.362l0.128,6.341l0.082,1.191v0.537c0,0.21-0.08,0.379-0.24,0.508
		c-0.159,0.128-0.333,0.193-0.52,0.193c-0.187,0-0.34-0.057-0.461-0.169C60.859,50.475,60.799,50.336,60.799,50.173z"/>
</g>
<g>
	<path fill="#FFFFFF" d="M43.153,76.453c-0.49,0-0.735-0.206-0.735-0.619v-3.117c-0.226-0.156-0.633-0.288-1.22-0.397
		c-0.588-0.108-1.112-0.179-1.571-0.21c-0.164,0.28-0.298,0.686-0.403,1.215s-0.214,1.063-0.327,1.6s-0.263,0.961-0.45,1.272
		c-0.623,0-0.973-0.159-1.051-0.479c0.218-0.311,0.572-1.902,1.063-4.775c0.491-2.873,0.894-5.121,1.209-6.744
		c0.315-1.623,0.656-2.986,1.021-4.092s0.716-1.658,1.051-1.658c0.334,0,0.591,0.069,0.771,0.209c0,0.568,0.156,2.106,0.467,4.613
		c0.311,2.507,0.467,4.128,0.467,4.863c0,0.736,0.083,1.958,0.251,3.667s0.251,2.991,0.251,3.848
		C43.947,76.185,43.682,76.453,43.153,76.453z M42.149,68.646c-0.14-1.412-0.267-2.76-0.38-4.04S41.6,62.551,41.6,62.283
		c0-0.27,0.003-0.423,0.012-0.462c-0.25,0.257-0.609,1.686-1.081,4.286c-0.471,2.6-0.722,4.246-0.753,4.939
		c0.662,0.179,1.216,0.268,1.664,0.268c0.447,0,0.765-0.022,0.952-0.069C42.371,70.926,42.289,70.06,42.149,68.646z"/>
	<path fill="#FFFFFF" d="M47.919,75.367l-0.059,0.152c0.031,0.093,0.047,0.215,0.047,0.367s-0.074,0.29-0.222,0.414
		c-0.148,0.125-0.343,0.188-0.584,0.188c-0.459,0-0.689-0.51-0.689-1.529c0-1.519-0.08-4.387-0.239-8.607
		c-0.16-4.219-0.321-6.453-0.484-6.702c0.007-0.825,0.572-1.265,1.693-1.319c0.171-0.008,0.403-0.012,0.695-0.012
		s0.521,0.055,0.689,0.163c0.167,0.109,0.251,0.331,0.251,0.666s-0.222,0.502-0.666,0.502l-0.583-0.023
		c-0.444,0-0.666,0.09-0.666,0.269c0,0.74,0.059,1.824,0.175,3.252c0.117,1.43,0.179,2.486,0.187,3.171
		c0.101-0.016,0.237-0.047,0.409-0.094c0.405-0.108,0.705-0.163,0.899-0.163c0.195,0,0.356,0.076,0.485,0.228
		s0.192,0.321,0.192,0.508c0,0.521-0.662,0.782-1.985,0.782c0,0.864,0.076,2.16,0.228,3.889S47.919,74.496,47.919,75.367z"/>
	<path fill="#FFFFFF" d="M54.122,62.58l-0.047,3.083l0.21,5.5l0.198,4.298c0,0.778-0.229,1.168-0.689,1.168
		c-0.265,0-0.459-0.125-0.584-0.374s-0.187-0.526-0.187-0.829l0.187-3.818c0-0.826-0.054-2.067-0.163-3.726
		c-0.109-1.658-0.164-2.899-0.164-3.726l0.035-2.09c0-1.145-0.074-1.888-0.222-2.23l-1.296,0.129c-0.203,0-0.384-0.061-0.543-0.182
		c-0.159-0.12-0.239-0.275-0.239-0.467c0-0.19,0.191-0.352,0.572-0.484c0.389-0.141,0.856-0.241,1.401-0.304
		c0.958-0.108,1.763-0.163,2.417-0.163c0.195,0,0.372,0.064,0.532,0.192c0.159,0.128,0.239,0.29,0.239,0.484s-0.07,0.349-0.21,0.462
		c-0.14,0.112-0.312,0.169-0.514,0.169l-0.853-0.047c-0.109,0-0.191,0.004-0.245,0.012C54.067,60.557,54.122,61.537,54.122,62.58z"
		/>
	<path fill="#FFFFFF" d="M60.115,67.707l-0.596-0.023c-0.233,0-0.397,0.059-0.49,0.175v7.38c0.817-0.047,1.261-0.07,1.331-0.07
		c0.91,0,1.366,0.211,1.366,0.631v0.082c-0.109,0.219-0.296,0.385-0.561,0.502s-0.498,0.184-0.701,0.199
		c-0.202,0.016-0.463,0.023-0.782,0.023h-0.747c-0.592,0-0.958-0.117-1.098-0.351c-0.063-0.109-0.094-0.253-0.094-0.433V61.926
		c0-0.271-0.055-0.677-0.163-1.214c-0.109-0.537-0.164-0.946-0.164-1.226v-0.082c0.265-0.436,0.464-0.717,0.596-0.841l1.775-0.21
		c0.241,0,0.484,0.072,0.729,0.216s0.368,0.333,0.368,0.566c0,0.475-0.362,0.712-1.086,0.712l-0.689-0.023
		c-0.116,0-0.202,0.004-0.257,0.012l0.187,3.947c0,0.319-0.02,0.784-0.058,1.396c-0.039,0.611-0.059,1.057-0.059,1.337
		c0.086-0.016,0.202-0.043,0.351-0.082c0.326-0.085,0.581-0.128,0.765-0.128c0.183,0,0.346,0.065,0.49,0.198
		s0.216,0.292,0.216,0.479c0,0.188-0.058,0.354-0.175,0.502C60.453,67.633,60.301,67.707,60.115,67.707z"/>
	<path fill="#FFFFFF" d="M63.515,75.764l0.092-14.023v-2.943c0-0.187,0.039-0.318,0.117-0.396s0.283-0.117,0.613-0.117
		s0.666,0.08,1.004,0.239c0.34,0.159,0.625,0.372,0.859,0.637c0.225,0.28,0.42,0.591,0.584,0.935
		c0.311,0.661,0.467,1.381,0.467,2.16c0,0.778-0.195,1.67-0.584,2.674c-0.047,0.109-0.141,0.338-0.281,0.689
		c-0.139,0.35-0.221,0.557-0.244,0.618c0.008,1.184,0.307,2.721,0.898,4.612c0.203,0.639,0.49,1.513,0.865,2.622
		c0.373,1.109,0.607,1.812,0.699,2.107v0.059c0,0.537-0.063,0.851-0.186,0.94c-0.125,0.089-0.258,0.134-0.398,0.134
		c-0.295,0-0.584-0.214-0.863-0.642v-0.082c-0.078-1.448-0.576-3.64-1.494-6.574c-0.422-1.34-0.713-2.332-0.877-2.979v9.424
		c0,0.242-0.043,0.428-0.127,0.561c-0.086,0.133-0.242,0.199-0.469,0.199c-0.225,0-0.395-0.064-0.508-0.193
		s-0.168-0.286-0.168-0.473V75.764z M64.833,59.381l-0.129,4.881c0,0.49,0.008,0.857,0.023,1.098
		c0.273-0.257,0.541-0.564,0.807-0.922l0.373-2.067c0.023-0.108,0.035-0.233,0.035-0.374c0-0.381-0.078-0.844-0.232-1.389
		C65.491,59.859,65.2,59.451,64.833,59.381z"/>
</g>
</svg>
