<?xml version="1.0" encoding="utf-8"?>
<!-- Generator: Adobe Illustrator 16.0.0, SVG Export Plug-In . SVG Version: 6.00 Build 0)  -->
<!DOCTYPE svg PUBLIC "-//W3C//DTD SVG 1.1//EN" "http://www.w3.org/Graphics/SVG/1.1/DTD/svg11.dtd">
<svg version="1.1" id="Ebene_1" xmlns="http://www.w3.org/2000/svg" xmlns:xlink="http://www.w3.org/1999/xlink" x="0px" y="0px"
	 width="260.79px" height="130.391px" viewBox="0 0 260.79 130.391" enable-background="new 0 0 260.79 130.391"
	 xml:space="preserve">
<g>
	<path fill="#7F1D78" d="M121.268,129.738c35.596,4.955,68.585-19.819,73.67-55.416c4.955-35.727-19.819-68.715-55.416-73.67
		c-35.596-4.955-68.715,19.819-73.67,55.416C60.767,91.795,85.671,124.783,121.268,129.738"/>
</g>
<g>
	<path fill="#FFFFFF" d="M83.063,50.852l0.261-4.173c0.261-2.347,1.173-3.39,2.608-3.26c0.913,0.131,2.086,0.521,3.521,1.174
		c1.434,0.652,2.216,1.304,2.086,1.956c-0.13,0.651-0.652,1.173-1.695,1.304c-1.435-0.782-2.608-1.174-3.651-1.435
		c0,0.652-0.13,1.435-0.261,2.087l-1.174,7.041c0,0,0,0.261,0,0.782l1.826,0.13c1.564,0.261,2.347,0.782,2.217,1.695
		c0,0.392-0.261,0.652-0.522,0.913s-0.652,0.261-1.173,0.261c-0.391,0-0.913-0.131-1.434-0.261l-1.304-0.131
		c-0.13,1.304-0.261,2.478-0.391,3.781l-1.434,8.866c-0.261,1.826-0.391,2.738-0.261,2.738l3.651,0.392
		c1.304,0.13,1.825,0.652,1.695,1.435c-0.13,0.521-0.391,0.782-0.782,1.043c-0.521,0.13-0.913,0.261-1.564,0.13L81.107,76.8
		c-0.391,0-0.782-0.261-1.173-0.651c-0.261-0.392-0.391-0.782-0.391-1.174l0.13-1.304l0.913-8.345L83.063,50.852z"/>
	<path fill="#FFFFFF" d="M92.843,57.241l1.564-9.127c0.261-1.564,1.043-2.607,2.347-3.391v0.261c0.13,0,0.261-0.13,0.391-0.13
		c0.782,0.13,1.565,1.564,2.347,4.434c0.782,2.868,1.434,5.867,1.956,9.127c0.522,3.26,0.913,6.65,1.435,10.04
		c0.521,3.391,0.782,5.346,0.913,5.867c1.564-6.78,3.129-15.125,4.563-24.904l0.13-1.304c0.13-0.913,0.652-1.435,1.435-1.304
		c0.521,0,0.782,0.261,0.913,0.782c0.13,0.391,0.261,0.913,0.13,1.435l-0.521,3.781c-0.521,3.911-1.434,8.997-2.738,15.386
		c-1.173,6.389-2.216,10.04-2.738,10.692c-0.913,0.13-1.564,0.261-1.956,0.13c-0.391,0-0.652-0.261-0.782-0.521
		s-0.261-0.652-0.261-1.174s-0.13-0.782-0.13-1.043v-0.261c0.13-1.174-0.521-5.216-1.956-12.126
		c-1.435-6.911-2.478-11.604-3.26-14.213l-3.521,24.774c0,0.13,0.13,0.13,0.13,0.391c0.13,0.392,0.261,0.783,0.13,1.044
		c0,0.261-0.261,0.651-0.521,0.912c-0.391,0.261-0.652,0.392-1.174,0.261c-1.043-0.13-1.434-1.173-1.173-3.26L92.843,57.241z"/>
	<path fill="#FFFFFF" d="M110.967,73.801l2.347-15.517c0.13-1.043,0.261-2.737,0.391-4.824c0.13-2.217,0.261-3.65,0.261-4.172
		c0.13-0.652,0.391-1.044,0.782-1.305s0.783-0.391,1.304-0.261c3.39,0.521,5.867,2.869,7.432,7.041
		c0.913,2.478,1.173,4.955,0.782,7.433l-0.391,2.478l-0.391,2.738c-0.521,3.26-0.913,5.477-1.434,6.52
		c-0.392,1.043-0.913,1.956-1.304,2.607c-0.391,0.652-0.913,1.304-1.434,1.825c-1.174,1.174-2.738,2.087-4.434,2.608l-3.521-0.521
		C110.576,80.32,110.445,78.103,110.967,73.801z M114.096,77.06l-0.261,1.174c2.869,0.392,4.955-2.217,6.389-7.954
		c0.261-1.304,0.521-2.607,0.782-3.781c1.435-9.909,0.261-15.386-3.521-16.299c-0.391,1.304-0.782,2.999-1.173,5.347
		c-0.261,2.216-0.652,5.867-1.174,10.691C114.748,71.062,114.357,74.714,114.096,77.06z"/>
	<path fill="#FFFFFF" d="M131.569,54.894l-1.565,11.865c-0.261,0.392-0.391,0.913-0.521,1.695l-0.13,1.043l-1.304,7.823
		c-0.261,2.217,0.13,3.521,1.174,3.651l2.085,0.261c1.826,0.261,2.608,0.913,2.479,1.825c0,0.392-0.262,0.652-0.521,0.782
		c-0.392,0.131-0.652,0.261-1.043,0.261c-1.174-0.521-2.608-0.912-4.304-1.173c-0.521,0.261-1.043,0.261-1.564,0.261
		c-0.521-0.131-0.782-0.261-1.043-0.652c-0.261-0.391-0.261-0.782-0.261-1.174c0.391-2.477,0.913-6.128,1.826-10.952
		s1.564-8.476,1.825-10.953v-0.391c0.131-2.087,0.261-3.651,0.392-4.694c0.391-3.13,1.173-4.563,2.347-4.434
		c0.391,0,0.652,0.261,0.783,0.521c0.26,0.261,0.26,0.521,0.26,0.913L131.569,54.894z"/>
	<path fill="#FFFFFF" d="M143.434,67.933l-1.174,10.562L142,79.929l-0.261,1.304l0.652,0.13l1.434,0.131
		c1.305,0.13,1.957,0.652,1.826,1.564c0,0.392-0.262,0.782-0.652,1.043s-0.782,0.392-1.174,0.261l-2.217-0.261
		c-1.434-0.261-2.477-0.391-2.868-0.521c-0.261,0-0.521,0-0.651,0c-1.174-0.13-1.695-0.651-1.564-1.304
		c0-0.261,0.13-0.521,0.391-0.782s0.391-0.392,0.652-0.392L139,81.363l0.131-0.651l1.174-10.562l1.824-10.953
		c0.262-1.825,0.393-3.65,0.522-5.346l-0.913-0.131l-1.174-0.13c-0.521-0.131-0.781-0.261-1.043-0.392
		c-0.26-0.261-0.391-0.651-0.26-1.043c0.13-0.782,0.912-1.043,2.607-0.782l5.867,0.782c1.305,0.131,1.956,0.652,1.826,1.304
		c0,0.261-0.262,0.521-0.521,0.782c-0.262,0.261-0.652,0.261-1.044,0.261l-2.478-0.391c0,1.304-0.261,2.868-0.391,4.563
		L143.434,67.933z"/>
	<path fill="#FFFFFF" d="M149.042,73.279l0.391-2.868l0.131-1.174c0.651-4.824,1.434-8.215,2.086-10.04
		c0.912-2.217,1.955-3.781,3.129-4.563c1.564-1.043,3.391-1.435,5.607-1.174c0.521,0.131,0.912,0.261,1.043,0.521
		c0.26,0.261,0.26,0.521,0.26,0.913s-0.13,0.652-0.391,0.913s-0.521,0.391-0.782,0.261l-2.347-0.261
		c-0.652-0.131-1.305,0.261-1.956,1.043s-1.044,1.825-1.565,2.999c-0.781,2.347-1.173,4.303-1.434,5.867v0.261l-1.564,9.519
		c-0.262,1.956-0.392,3.391-0.262,4.173c0.131,0.782,0.262,1.434,0.392,1.955c0.13,0.522,0.392,0.913,0.652,1.305
		c0.651,0.782,1.564,1.304,2.737,1.434c0.393,0,0.783,0,1.174-0.261c0.392,0,0.783,0.131,1.043,0.392
		c0.262,0.261,0.392,0.521,0.392,0.913c-0.13,1.304-1.173,1.825-2.999,1.564c-0.782-0.131-1.434-0.261-2.217-0.652
		c-0.782-0.391-1.304-0.651-1.695-0.912C148.78,83.711,148.258,79.669,149.042,73.279z"/>
	<path fill="#FFFFFF" d="M167.165,57.762l-1.955,12.257c0.521,0.261,1.434,0.392,2.607,0.652l1.826,0.261
		c0.13-0.131,0.26-0.652,0.391-1.564c0.131-0.913,0.261-2.999,0.521-6.129c0.261-3.129,0.391-5.477,0.652-7.041
		c0-0.391,0.26-0.651,0.521-0.912c0.26-0.262,0.652-0.262,0.912-0.262c0.262,0,0.521,0.131,0.652,0.131
		c0.131,0.131,0.261,0.131,0.521,0.261c0.131,0.131,0.261,0.131,0.391,0.261c-0.651,4.303-1.303,10.562-2.217,18.776
		c-0.781,8.215-1.303,12.518-1.303,12.778s-0.262,0.521-0.652,0.782s-0.782,0.261-1.174,0.261c-0.391,0-0.782-0.392-0.912-1.043
		c-0.131-0.652-0.262-1.564-0.131-2.869c0.131-1.304,0.131-2.347,0.261-3.26c0-0.391,0.13-0.782,0.13-1.304
		c0.131-0.651,0.262-1.435,0.392-2.347c0.261-1.564,0.392-2.348,0.392-2.608v-0.261l0.261-1.434l-0.261-0.521l0,0
		c-0.261,0-0.521,0-0.913,0l-2.868-0.913l-0.783,5.606l-0.781,8.085c-0.131,0.521-0.262,0.912-0.521,1.173
		c-0.262,0.261-0.652,0.521-1.174,0.392c-0.652-0.131-1.043-0.782-1.043-1.956c-0.131-1.174,0-2.868,0.26-4.955l1.174-7.432
		c0.262-1.565,0.262-2.478,0.262-2.608v-0.261c0.391-1.695,0.521-2.607,0.651-2.868l1.173-11.214c0-0.391,0.262-0.652,0.521-0.913
		c0.262-0.261,0.652-0.391,1.044-0.261C167.165,54.763,167.426,55.807,167.165,57.762z"/>
	<path fill="#FFFFFF" d="M177.335,88.796c-0.13,1.174-1.043,1.564-2.738,1.435c-0.392,0-0.651-0.261-1.043-0.652
		c-0.261-0.391-0.392-0.912-0.392-1.435c0.131-0.521,0.392-1.043,0.783-1.434c0.521-0.392,1.043-0.521,1.564-0.521
		c0.652,0.13,1.043,0.391,1.304,0.912C177.335,87.622,177.465,88.143,177.335,88.796z M178.378,76.278l-0.261,2.348
		c-0.261,2.216-0.782,3.39-1.434,3.26c-0.392,0-0.652-0.522-0.783-1.305c-0.13-0.782-0.13-1.825,0-3.129l1.305-8.084l2.086-16.169
		c0.131-0.521,0.391-0.912,0.782-1.304c0.521-0.261,0.913-0.392,1.435-0.392c0.391,0,0.782,0.262,0.912,0.522
		c0.262,0.261,0.262,0.521,0.262,0.912c-0.392,2.608-1.044,6.52-2.217,11.735C179.552,69.759,178.77,73.671,178.378,76.278z"/>
</g>
</svg>
