<?xml version="1.0" encoding="utf-8"?>
<!-- Generator: Adobe Illustrator 16.0.0, SVG Export Plug-In . SVG Version: 6.00 Build 0)  -->
<!DOCTYPE svg PUBLIC "-//W3C//DTD SVG 1.1//EN" "http://www.w3.org/Graphics/SVG/1.1/DTD/svg11.dtd">
<svg version="1.1" id="Layer_1" xmlns="http://www.w3.org/2000/svg" xmlns:xlink="http://www.w3.org/1999/xlink" x="0px" y="0px"
	 width="54.667px" height="55px" viewBox="0 0 54.667 55" enable-background="new 0 0 54.667 55" xml:space="preserve">
<circle fill="#7F1D78" cx="27.832" cy="27.5" r="23.833"/>
<g>
	<path fill="#FFFFFF" d="M10.381,19.9l-0.599,4.102l-0.055,0.552l0.382,0.027c0.661,0.066,0.975,0.279,0.938,0.64
		c-0.018,0.181-0.106,0.319-0.264,0.415c-0.158,0.096-0.355,0.131-0.593,0.108s-0.479-0.087-0.725-0.193l-0.578,5.815
		c-0.06,0.602-0.267,0.884-0.621,0.85c-0.214-0.021-0.448-0.149-0.701-0.384c0.235-1.212,0.492-2.943,0.773-5.193
		c0.281-2.25,0.476-3.721,0.585-4.412l0.05-0.501c0.151-0.99,0.271-1.917,0.357-2.779c0.019-0.194,0.116-0.336,0.291-0.427
		c0.174-0.091,0.363-0.126,0.567-0.106s0.422,0.049,0.655,0.085c0.24,0.037,0.526,0.1,0.862,0.187
		c0.764,0.191,1.128,0.466,1.092,0.827c-0.039,0.388-0.405,0.547-1.101,0.478c-0.261-0.161-0.612-0.263-1.053-0.307l-0.239-0.024
		L10.381,19.9z"/>
	<path fill="#FFFFFF" d="M15.391,25.845l-0.333,4.372l-0.061,0.611l-0.067,0.571l0.271,0.026l0.594,0.039
		c0.562,0.056,0.825,0.253,0.791,0.595c-0.018,0.174-0.101,0.315-0.25,0.425c-0.15,0.11-0.314,0.156-0.495,0.139l-0.902-0.09
		c-0.621-0.062-1.018-0.114-1.188-0.158c-0.108,0.003-0.192,0.002-0.253-0.005c-0.488-0.048-0.716-0.227-0.686-0.534
		c0.013-0.127,0.063-0.242,0.155-0.349c0.092-0.105,0.177-0.157,0.259-0.156l0.581,0.058l0.068-0.267l0.292-4.376l0.565-4.561
		c0.078-0.782,0.117-1.52,0.118-2.216l-0.391-0.039l-0.473-0.027c-0.2-0.02-0.354-0.074-0.46-0.162
		c-0.105-0.088-0.148-0.239-0.126-0.453c0.031-0.314,0.384-0.438,1.06-0.371l2.445,0.243c0.556,0.055,0.818,0.226,0.79,0.513
		c-0.013,0.127-0.084,0.239-0.215,0.333c-0.131,0.095-0.273,0.135-0.427,0.12l-1.052-0.104c-0.003,0.566-0.04,1.204-0.11,1.913
		L15.391,25.845z"/>
	<path fill="#FFFFFF" d="M18.356,24.641l0.5-3.818c0.063-0.635,0.364-1.115,0.902-1.439l-0.013,0.131
		c0.057-0.028,0.109-0.041,0.156-0.036c0.321,0.032,0.667,0.625,1.038,1.779c0.372,1.154,0.686,2.412,0.942,3.774
		s0.51,2.735,0.761,4.121c0.25,1.385,0.411,2.199,0.48,2.442c0.559-2.84,1.041-6.299,1.445-10.376l0.024-0.555
		c0.041-0.407,0.232-0.594,0.572-0.561c0.194,0.019,0.331,0.114,0.413,0.284c0.081,0.17,0.111,0.362,0.09,0.576l-0.154,1.554
		c-0.173,1.609-0.459,3.753-0.856,6.43c-0.396,2.678-0.723,4.179-0.979,4.505c-0.385,0.076-0.65,0.107-0.793,0.093
		c-0.145-0.015-0.25-0.073-0.317-0.178c-0.066-0.104-0.114-0.26-0.141-0.465c-0.027-0.205-0.053-0.343-0.08-0.413l0.019-0.09
		c0.05-0.508-0.282-2.171-0.994-4.988c-0.712-2.818-1.237-4.76-1.577-5.827L18.768,31.92c0.011,0.028,0.033,0.078,0.065,0.149
		c0.073,0.155,0.103,0.296,0.09,0.424c-0.013,0.126-0.087,0.248-0.223,0.362c-0.137,0.114-0.288,0.164-0.455,0.147
		c-0.448-0.045-0.63-0.485-0.547-1.32L18.356,24.641z"/>
	<path fill="#FFFFFF" d="M30.829,30.061l0.095,1.284c-0.017,0.167,0.008,0.582,0.074,1.243s0.09,1.092,0.07,1.293l-0.002,0.02
		c-0.03,0.301-0.164,0.483-0.4,0.548c-0.287-0.028-0.506-0.098-0.656-0.207c-0.152-0.109-0.214-0.298-0.188-0.565
		c0.058-0.581,0.041-1.437-0.05-2.566l-1.995-0.502c-0.172,0.442-0.318,0.931-0.439,1.465c-0.121,0.535-0.223,0.924-0.308,1.164
		c-0.171,0.496-0.419,0.729-0.747,0.696c-0.16-0.017-0.304-0.083-0.43-0.2c-0.127-0.117-0.183-0.256-0.167-0.417l0.068-0.175
		c1.276-3.471,2.306-6.872,3.089-10.203c0.022-0.092,0.069-0.364,0.142-0.816c0.165-0.996,0.356-1.622,0.571-1.877l0.691,0.068
		c0.187,0.019,0.348,0.079,0.479,0.18c0.132,0.101,0.189,0.238,0.172,0.412c-0.104,1.043-0.118,2.604-0.045,4.683
		C30.926,27.667,30.919,29.158,30.829,30.061z M29.715,30.366c-0.021-0.205-0.006-0.557,0.043-1.054
		c0.05-0.498,0.084-1.119,0.101-1.863c0.016-0.745,0.02-1.612,0.01-2.602c-0.009-0.989-0.013-1.707-0.009-2.152
		c-0.964,3.381-1.605,5.767-1.926,7.159C28.152,30.031,28.746,30.202,29.715,30.366z"/>
	<path fill="#FFFFFF" d="M34.536,23.018l-0.431,4.938c-0.098,0.179-0.161,0.409-0.189,0.689l-0.041,0.411l-0.404,3.261
		c-0.094,0.942,0.09,1.437,0.552,1.482l0.855,0.055c0.734,0.072,1.083,0.31,1.043,0.711c-0.015,0.146-0.091,0.262-0.228,0.347
		c-0.136,0.084-0.286,0.129-0.448,0.132c-0.485-0.21-1.088-0.351-1.811-0.422c-0.232,0.104-0.452,0.147-0.655,0.127
		c-0.204-0.021-0.356-0.106-0.455-0.258c-0.1-0.151-0.142-0.312-0.125-0.479c0.101-1.016,0.296-2.54,0.585-4.574
		c0.29-2.033,0.485-3.558,0.586-4.574l0.015-0.15c0.005-0.864,0.029-1.509,0.071-1.937c0.129-1.297,0.431-1.922,0.905-1.875
		c0.141,0.014,0.257,0.076,0.352,0.187c0.092,0.111,0.133,0.236,0.119,0.376L34.536,23.018z"/>
	<path fill="#FFFFFF" d="M39.26,23.486l-0.43,4.938c-0.099,0.179-0.162,0.41-0.19,0.69l-0.041,0.411l-0.403,3.261
		c-0.094,0.942,0.089,1.437,0.551,1.482l0.855,0.055c0.734,0.072,1.083,0.31,1.043,0.711c-0.015,0.146-0.09,0.262-0.228,0.347
		c-0.136,0.084-0.285,0.129-0.448,0.133c-0.484-0.21-1.088-0.351-1.81-0.423c-0.233,0.105-0.453,0.147-0.656,0.127
		c-0.204-0.02-0.355-0.105-0.455-0.258c-0.1-0.151-0.142-0.311-0.125-0.478c0.101-1.017,0.296-2.541,0.585-4.574
		c0.29-2.033,0.485-3.558,0.586-4.574l0.015-0.15c0.005-0.864,0.029-1.509,0.071-1.937c0.129-1.297,0.431-1.922,0.905-1.875
		c0.141,0.014,0.258,0.076,0.352,0.187c0.092,0.111,0.133,0.236,0.119,0.376L39.26,23.486z"/>
	<path fill="#FFFFFF" d="M43.73,34.45c-0.091,0.916-0.361,1.352-0.809,1.307c-0.247-0.024-0.422-0.194-0.527-0.508
		c0.185-0.286,0.377-1.438,0.577-3.456c0.036-0.367,0.052-0.893,0.045-1.575c-0.008-0.682-0.003-1.167,0.014-1.457l0.053-0.532
		c-0.021-0.062-0.182-0.625-0.48-1.688c-0.683-2.382-1-3.795-0.956-4.236l0.011-0.11L42.15,21.9
		c0.421,0.049,0.817,1.158,1.189,3.328c0.162,0.948,0.243,1.425,0.243,1.432c0.068-0.148,0.226-0.649,0.473-1.502
		c0.627-2.179,1.166-3.246,1.613-3.202c0.127,0.013,0.239,0.064,0.334,0.155c0.096,0.09,0.137,0.199,0.124,0.327
		c-0.067,0.682-0.361,1.653-0.881,2.914c-0.521,1.261-0.821,2.232-0.901,2.913L43.73,34.45z"/>
	<path fill="#FFFFFF" d="M47.378,35.652c-0.048,0.481-0.409,0.688-1.083,0.621c-0.155-0.015-0.3-0.102-0.436-0.261
		c-0.137-0.158-0.192-0.355-0.169-0.594c0.023-0.237,0.129-0.442,0.314-0.616c0.187-0.174,0.402-0.249,0.65-0.225
		c0.246,0.024,0.436,0.142,0.567,0.35C47.354,35.136,47.405,35.378,47.378,35.652z M47.612,30.441l-0.077,0.975
		c-0.093,0.936-0.266,1.391-0.52,1.366c-0.141-0.015-0.253-0.194-0.336-0.54c-0.084-0.346-0.101-0.772-0.05-1.281l0.417-3.391
		l0.568-6.748c0.021-0.213,0.13-0.391,0.325-0.529c0.196-0.139,0.385-0.2,0.566-0.182c0.18,0.018,0.313,0.081,0.4,0.187
		s0.124,0.23,0.11,0.37c-0.108,1.096-0.344,2.727-0.702,4.892C47.954,27.724,47.721,29.352,47.612,30.441z"/>
</g>
</svg>
