<?xml version="1.0" encoding="utf-8"?>
<!-- Generator: Adobe Illustrator 16.0.0, SVG Export Plug-In . SVG Version: 6.00 Build 0)  -->
<!DOCTYPE svg PUBLIC "-//W3C//DTD SVG 1.1//EN" "http://www.w3.org/Graphics/SVG/1.1/DTD/svg11.dtd">
<svg version="1.1" id="Ebene_1" xmlns="http://www.w3.org/2000/svg" xmlns:xlink="http://www.w3.org/1999/xlink" x="0px" y="0px"
	 width="260.79px" height="130.391px" viewBox="0 0 260.79 130.391" enable-background="new 0 0 260.79 130.391"
	 xml:space="preserve">
<g>
	<path fill="#7F1D78" d="M137.175,129.999c35.857-3.781,61.806-35.857,58.023-71.584c-3.781-35.857-35.856-61.805-71.584-58.023
		C87.757,4.173,61.81,36.249,65.591,71.975C69.373,107.833,101.448,133.78,137.175,129.999"/>
	<g>
		<path fill="#FFFFFF" d="M113.184,49.288l0.913,6.259c0.261,1.955-0.261,3.521-1.564,4.693c-1.304,1.174-2.738,1.956-4.564,2.087
			c-2.738,0.261-4.824-0.522-6.259-2.478c-1.043-1.304-1.695-2.738-2.086-3.912c-0.391-1.304-0.652-2.217-0.782-2.868
			c-0.13-0.652-0.392-1.565-0.522-2.869c-0.261-1.694-0.391-2.999-0.521-4.042l-0.261-2.607c-0.652-5.607-0.782-9.128-0.652-10.692
			s0.391-2.999,0.652-4.303s0.652-2.347,1.304-3.129c1.304-1.826,2.999-2.869,4.955-3.13s2.999,0.261,3.129,1.174
			c0,0.521-0.13,0.912-0.521,1.173c-0.391,0.392-0.782,0.522-1.304,0.652h-1.304c-1.434,0.131-2.217,1.564-2.738,4.434
			c-0.652,4.042-0.652,8.736,0,14.212c0.391,3.781,0.782,6.259,1.174,7.693c0.391,1.435,0.782,2.478,1.173,3.39
			c0.391,0.913,0.782,1.695,1.173,2.217c1.043,1.305,2.347,1.826,3.781,1.695c1.956-0.261,2.608-3.521,1.956-9.779l-0.261-2.738
			c-0.261-0.13-0.782-0.13-1.435-0.13l-1.173,0.13c-1.434,0.131-2.086-0.261-2.217-1.173c0-0.522,0.13-1.044,0.522-1.305
			c0.391-0.391,0.782-0.521,1.434-0.651l0,0l0.782-0.131c3.521-0.391,5.477,0,5.607,1.304L113.184,49.288z"/>
		<path fill="#FFFFFF" d="M115.922,30.641l-0.913-4.954c-0.261-2.869,0.391-4.304,2.086-4.434c1.043-0.131,2.608,0,4.433,0.261
			c1.956,0.261,2.869,0.782,2.999,1.564s-0.391,1.435-1.564,2.087c-1.956-0.392-3.39-0.652-4.694-0.652
			c0.13,0.913,0.261,1.695,0.391,2.607l0.652,8.606c0,0,0.13,0.391,0.261,0.912l2.086-0.261c1.956-0.261,2.999,0.261,2.999,1.304
			c0,0.392-0.13,0.783-0.391,1.174c-0.261,0.392-0.782,0.521-1.304,0.652c-0.521,0-1.174,0.13-1.695,0l-1.564,0.13
			c0.261,1.564,0.521,2.999,0.652,4.434l0.913,10.822c0.261,2.217,0.391,3.39,0.521,3.39l4.434-0.651
			c1.564-0.131,2.347,0.261,2.477,1.174c0,0.651-0.13,1.043-0.652,1.434c-0.521,0.392-1.043,0.521-1.695,0.652l-5.085,0.391
			c-0.521,0-1.043-0.13-1.434-0.391c-0.521-0.261-0.782-0.782-0.782-1.174l-0.13-1.564l-1.565-10.04L115.922,30.641z"/>
		<path fill="#FFFFFF" d="M131.569,23.079l1.304,14.864c0.782,0.131,1.825,0.131,3.26,0l2.216-0.261c0.131-0.13,0-0.782,0-1.955
			c-0.13-1.044-0.521-3.521-1.173-7.302c-0.651-3.782-1.043-6.52-1.304-8.476c0-0.392,0.131-0.782,0.391-1.174
			c0.262-0.391,0.652-0.521,0.913-0.521s0.521,0,0.782,0s0.391,0.131,0.652,0.131c0.261,0.13,0.391,0.13,0.521,0.13
			c0.521,5.216,1.564,12.647,2.999,22.558c1.435,9.909,2.086,14.995,2.216,15.386c0,0.392-0.13,0.652-0.521,1.043
			c-0.391,0.392-0.781,0.521-1.303,0.652c-0.522,0.13-0.914-0.261-1.305-1.043s-0.652-1.825-1.043-3.26
			c-0.261-1.435-0.521-2.738-0.652-3.781c-0.13-0.521-0.13-1.043-0.13-1.564c-0.13-0.783-0.13-1.695-0.261-2.738
			c-0.131-1.826-0.261-2.869-0.261-3.26v-0.261l-0.131-1.695l-0.392-0.521l0,0c-0.26,0.13-0.651,0.13-1.043,0.261l-3.911-0.131
			l0.782,6.78l1.435,9.779c0,0.521,0,1.043-0.261,1.564c-0.262,0.522-0.652,0.783-1.174,0.783c-0.782,0.13-1.434-0.652-1.825-1.956
			c-0.392-1.435-0.782-3.391-1.044-5.868l-0.782-9.127c-0.261-1.825-0.391-2.868-0.391-3.129v-0.261c0-2.087-0.13-3.26-0.13-3.521
			l-2.217-13.431c0-0.521,0.13-0.913,0.391-1.304c0.261-0.392,0.652-0.652,1.174-0.652
			C130.656,19.689,131.307,20.732,131.569,23.079z"/>
		<path fill="#FFFFFF" d="M153.866,56.068l-0.652-4.564c0,0,0-0.651-0.131-2.086c-0.26-0.521-1.043-4.955-2.347-13.3
			s-2.217-13.561-2.347-15.386c-0.131,0-0.131,0-0.262,0c-3.26,0.261-4.954-0.131-5.084-1.304c0-0.392,0.13-0.652,0.521-1.043
			c0.391-0.262,0.781-0.392,1.173-0.522l8.215-0.261l0.913-0.13c1.303-0.131,1.955,0.261,1.955,1.174
			c0,0.521-0.13,0.912-0.521,1.304c-0.391,0.391-0.782,0.521-1.304,0.651l-2.738-0.13v0.651c0.392,3.781,1.304,9.389,2.738,16.82
			c1.435,7.433,2.347,13.039,2.738,16.82c0,0.522-0.13,0.913-0.521,1.305c-0.392,0.391-0.782,0.651-1.304,0.651L153.866,56.068z"/>
	</g>
	<g>
		<path fill="#FFFFFF" d="M97.537,103.138l-1.825-18.776c-0.13-1.304-0.522-3.26-0.913-5.867c-0.521-2.607-0.782-4.303-0.913-4.955
			c-0.13-0.782,0.13-1.304,0.521-1.694c0.391-0.392,0.913-0.652,1.304-0.783c4.042-0.391,7.693,1.565,10.692,6.129
			c1.825,2.607,2.869,5.346,3.129,8.476l0.13,2.999l0.391,3.26c0.391,4.042,0.521,6.649,0.261,8.084
			c-0.261,1.434-0.521,2.478-0.782,3.521s-0.652,1.825-1.174,2.478c-1.043,1.694-2.607,3.129-4.433,4.303l-4.042,0.521
			C98.841,110.962,98.058,108.354,97.537,103.138z M102.101,106.137l0.13,1.435c3.39-0.392,5.215-4.042,5.085-11.083
			c0-1.565-0.13-3.13-0.261-4.694c-1.304-11.996-4.172-17.994-8.867-18.124c-0.13,1.564,0,3.781,0.261,6.52
			c0.261,2.738,0.913,7.041,1.826,12.778C101.057,98.836,101.709,103.138,102.101,106.137z"/>
		<path fill="#FFFFFF" d="M113.444,90.621l-0.13-2.217c0-0.13,0-0.261-0.13-0.261l-0.13-1.043
			c-0.652-6.259-0.782-10.691-0.261-13.43c0.391-2.348,0.782-3.781,1.304-4.303s1.043-0.913,1.565-0.913
			c4.563-0.521,8.084,1.564,10.301,5.998c1.304,2.607,2.086,5.867,2.607,9.779v0.391l0.783,6.78
			c1.173,11.475-0.913,17.473-6.128,17.994c-2.217,0.261-4.042-0.782-5.477-3.129c-1.304-2.217-2.216-4.434-2.738-6.65
			C114.227,95.968,113.705,93.098,113.444,90.621z M116.183,82.146l0.261,5.476c0.652,5.737,1.564,10.692,2.999,14.995
			c1.304,2.347,2.347,3.781,3.26,4.173c0.782-0.131,1.304-0.392,1.825-1.043c0.521-0.652,0.913-1.435,1.174-2.478
			c0.261-1.043,0.391-2.087,0.521-3.13s0.13-2.217,0.13-3.521c0-2.086-0.13-3.911-0.261-5.477c-0.13-1.434-0.521-3.781-1.174-6.78
			c-0.652-2.999-0.913-5.346-1.173-6.91l-0.13-1.043c-0.13-1.435-0.782-2.738-1.826-3.781c-1.043-1.044-2.216-1.435-3.651-1.305
			c-1.304,0.131-2.216,1.044-2.477,2.608c-0.261,1.304-0.261,2.868,0,4.824L116.183,82.146z"/>
		<path fill="#FFFFFF" d="M132.743,92.447l-0.392-3.521l-0.13-1.435c-0.652-5.868-0.783-9.91-0.393-12.257
			c0.393-2.868,1.174-4.955,2.348-6.128c1.564-1.695,3.65-2.608,6.129-2.999c0.651,0,1.043,0,1.434,0.261
			c0.392,0.261,0.521,0.651,0.521,1.043c0,0.391,0,0.782-0.261,1.174c-0.261,0.391-0.521,0.521-0.913,0.651l-2.738,0.261
			c-0.781,0.131-1.434,0.652-1.955,1.825c-0.521,1.174-0.782,2.478-0.912,4.043c-0.262,2.868-0.262,5.346,0,7.171v0.261
			l0.912,11.475c0.261,2.478,0.521,4.042,0.912,4.955c0.392,0.912,0.652,1.564,1.043,2.216c0.392,0.522,0.783,1.044,1.174,1.305
			c1.043,0.782,2.217,1.043,3.521,0.912c0.521,0,0.912-0.261,1.173-0.651c0.521,0,0.913,0,1.304,0.13
			c0.392,0.131,0.652,0.521,0.652,0.913c0.131,1.564-0.913,2.478-2.999,2.738c-0.913,0.13-1.825,0-2.868-0.131
			c-1.043-0.13-1.826-0.391-2.348-0.651C135.35,104.573,133.524,100.139,132.743,92.447z"/>
		<path fill="#FFFFFF" d="M149.432,68.976l1.304,14.864c0.782,0.131,1.825,0.131,3.26,0l2.217-0.261c0.13-0.13,0-0.782,0-1.956
			c-0.13-1.043-0.521-3.521-1.174-7.302c-0.651-3.781-1.043-6.52-1.304-8.475c0-0.392,0.131-0.782,0.391-1.174
			c0.262-0.392,0.652-0.521,0.913-0.521s0.521,0,0.782,0c0.131,0,0.392,0.13,0.652,0.13c0.261,0.131,0.391,0.131,0.521,0.131
			c0.521,5.216,1.564,12.647,2.999,22.558c1.435,9.909,2.086,14.995,2.217,15.386c0,0.392-0.131,0.652-0.522,1.043
			c-0.391,0.392-0.781,0.521-1.303,0.652c-0.521,0-0.913-0.261-1.305-1.043c-0.391-0.782-0.782-1.826-1.043-3.26
			c-0.261-1.435-0.521-2.738-0.652-3.781c0-0.521-0.13-1.044-0.13-1.565c-0.13-0.782-0.13-1.694-0.261-2.738
			c-0.131-1.825-0.261-2.868-0.261-3.26v-0.261l-0.261-1.694l-0.391-0.521l0,0c-0.262,0.13-0.652,0.13-1.044,0.261l-3.911-0.131
			l0.781,6.78l1.436,9.779c0,0.521,0,1.043-0.262,1.564c-0.26,0.521-0.651,0.782-1.174,0.782c-0.781,0.131-1.434-0.521-1.824-1.955
			c-0.392-1.435-0.783-3.391-1.043-5.868l-0.783-9.127c-0.261-1.825-0.391-2.869-0.391-3.13v-0.261c0-2.086-0.131-3.26-0.131-3.521
			l-1.825-13.43c0-0.521,0.13-0.913,0.392-1.304c0.26-0.392,0.651-0.652,1.173-0.652C148.389,65.456,149.171,66.63,149.432,68.976z"
			/>
		<path fill="#FFFFFF" d="M167.817,87.361l0.391,2.869c0.262,2.738,0,4.042-0.651,4.172c-0.392,0-0.782-0.391-1.304-1.304
			c-0.391-0.912-0.783-2.086-0.913-3.65l-0.782-9.91l-2.347-19.559c0-0.651,0.13-1.173,0.651-1.695
			c0.521-0.521,1.043-0.782,1.564-0.782s0.913,0,1.305,0.261c0.261,0.261,0.521,0.521,0.521,1.044
			c0.391,3.129,0.652,7.953,0.912,14.343C167.295,79.408,167.556,84.232,167.817,87.361z M170.294,102.356
			c0.13,1.435-0.782,2.217-2.738,2.347c-0.392,0-0.913-0.13-1.435-0.521c-0.521-0.391-0.782-0.912-0.782-1.564
			c-0.13-0.651,0.13-1.304,0.522-1.956c0.391-0.651,1.043-0.912,1.694-1.043c0.782-0.13,1.304,0.131,1.825,0.652
			C169.903,100.922,170.165,101.574,170.294,102.356z"/>
	</g>
</g>
</svg>
