<?xml version="1.0" encoding="utf-8"?>
<!-- Generator: Adobe Illustrator 16.0.0, SVG Export Plug-In . SVG Version: 6.00 Build 0)  -->
<!DOCTYPE svg PUBLIC "-//W3C//DTD SVG 1.1//EN" "http://www.w3.org/Graphics/SVG/1.1/DTD/svg11.dtd">
<svg version="1.1" id="Layer_2" xmlns="http://www.w3.org/2000/svg" xmlns:xlink="http://www.w3.org/1999/xlink" x="0px" y="0px"
	 width="92px" height="89.667px" viewBox="0 0 92 89.667" enable-background="new 0 0 92 89.667" xml:space="preserve">
<circle fill="#7F1D78" cx="46.167" cy="44.168" r="41.167"/>
<g>
	<path fill="#FFFFFF" d="M40.628,38.665l0.108-4.287c0-0.433-0.07-1.074-0.211-1.922s-0.211-1.53-0.211-2.046
		s-0.089-1.144-0.266-1.884s-0.373-1.406-0.59-1.998c-0.57-1.552-0.855-2.876-0.855-3.973c0-0.108,0.063-0.2,0.189-0.276
		c0.126-0.076,0.258-0.113,0.396-0.113c0.137,0,0.283,0.169,0.438,0.509c0.154,0.339,0.297,0.772,0.428,1.299
		c0.129,0.527,0.25,1.054,0.362,1.581c0.112,0.527,0.215,1.038,0.309,1.532c0.094,0.494,0.162,0.813,0.206,0.958
		c0.028-0.13,0.063-0.438,0.103-0.926c0.039-0.487,0.085-0.987,0.136-1.5c0.058-0.52,0.13-1.039,0.216-1.559
		c0.195-1.191,0.489-1.787,0.883-1.787c0.393,0,0.59,0.08,0.59,0.238c0,0.83-0.177,2.068-0.53,3.713s-0.53,2.895-0.53,3.746
		l-0.065,0.769v0.335l0.119,5.878l0.076,1.104v0.498c0,0.195-0.074,0.352-0.223,0.471c-0.147,0.119-0.309,0.179-0.481,0.179
		s-0.315-0.053-0.428-0.157S40.628,38.816,40.628,38.665z"/>
	<path fill="#FFFFFF" d="M47.097,30.816l-0.552-0.021c-0.217,0-0.368,0.054-0.455,0.162v6.842c0.758-0.043,1.169-0.065,1.234-0.065
		c0.845,0,1.267,0.195,1.267,0.585v0.076c-0.102,0.202-0.274,0.357-0.52,0.465c-0.245,0.108-0.462,0.17-0.649,0.185
		s-0.43,0.021-0.726,0.021h-0.692c-0.549,0-0.889-0.108-1.019-0.325c-0.058-0.101-0.086-0.234-0.086-0.4V25.457
		c0-0.252-0.051-0.628-0.151-1.126c-0.102-0.498-0.152-0.877-0.152-1.137v-0.076c0.245-0.404,0.43-0.664,0.553-0.78l1.646-0.195
		c0.224,0,0.449,0.067,0.677,0.2c0.227,0.134,0.341,0.309,0.341,0.525c0,0.44-0.336,0.66-1.007,0.66l-0.639-0.021
		c-0.108,0-0.188,0.004-0.238,0.011l0.173,3.659c0,0.296-0.018,0.728-0.054,1.294s-0.055,0.979-0.055,1.239
		c0.08-0.014,0.188-0.04,0.325-0.076c0.303-0.079,0.539-0.119,0.709-0.119s0.321,0.062,0.455,0.184c0.133,0.123,0.2,0.271,0.2,0.444
		c0,0.173-0.055,0.329-0.162,0.466C47.412,30.748,47.271,30.816,47.097,30.816z"/>
	<path fill="#FFFFFF" d="M49.971,38.676c0-0.396,0.166-0.596,0.498-0.596c0.166,0,0.385,0.057,0.655,0.168
		c0.271,0.112,0.505,0.168,0.704,0.168c0.198,0,0.413-0.126,0.644-0.379c0.231-0.253,0.411-0.566,0.541-0.942
		c0.268-0.765,0.401-1.456,0.401-2.073s-0.108-1.279-0.325-1.987c-0.217-0.707-0.48-1.371-0.79-1.992
		c-0.311-0.621-0.625-1.242-0.942-1.862c-0.75-1.479-1.122-2.829-1.115-4.049c-0.007-1.155,0.357-2.061,1.094-2.717
		c0.39-0.347,0.848-0.52,1.375-0.52c0.267,0,0.526,0.074,0.779,0.222s0.43,0.341,0.53,0.579l-0.379,0.477
		c-0.368,0-0.656-0.072-0.865-0.217c-0.274,0.029-0.513,0.159-0.715,0.39c-0.368,0.426-0.553,0.951-0.553,1.575
		c0,0.625,0.08,1.232,0.238,1.824c0.159,0.592,0.357,1.123,0.596,1.592s0.494,0.978,0.769,1.526
		c0.281,0.548,0.542,1.076,0.779,1.581c0.556,1.169,0.834,2.432,0.834,3.789c0.007,0.953-0.234,1.87-0.726,2.75
		c-0.23,0.419-0.548,0.764-0.952,1.034s-0.855,0.406-1.354,0.406c-0.534,0-0.955-0.08-1.262-0.238
		C50.125,39.025,49.971,38.856,49.971,38.676z"/>
	<path fill="#FFFFFF" d="M59.303,39.314c-0.22,0.469-0.514,0.888-0.882,1.256s-0.694,0.552-0.979,0.552s-0.428-0.092-0.428-0.275
		c0-0.185,0.09-0.353,0.271-0.504c0.325-0.375,0.563-1.075,0.715-2.101c0.13-0.873,0.418-1.31,0.865-1.31
		c0.513,0,0.77,0.39,0.77,1.169C59.634,38.441,59.524,38.846,59.303,39.314z"/>
</g>
<g>
	<path fill="#FFFFFF" d="M26.012,48.426l-0.4-0.012c-0.148,0-0.258,0.032-0.328,0.095c-0.07,0.063-0.105,0.188-0.105,0.372
		c0,1.481,0.093,3.7,0.278,6.655s0.278,5.174,0.278,6.655v0.877c0.156-0.021,0.311-0.033,0.467-0.033c0.629,0,0.944,0.267,0.944,0.8
		v0.134l-0.567,0.389l-1.544,0.056c-1.311,0-1.966-0.226-1.966-0.678c0-0.363,0.229-0.545,0.689-0.545l0.478,0.034
		c0.222,0,0.333-0.178,0.333-0.534c0-1.17-0.07-2.923-0.211-5.26c-0.141-2.337-0.211-4.091-0.211-5.261l0.044-2.322
		c0-0.489-0.019-0.911-0.056-1.267c-0.2,0.066-0.377,0.1-0.533,0.1c-0.355,0-0.533-0.181-0.533-0.544
		c0-0.186,0.115-0.347,0.344-0.483s0.515-0.235,0.856-0.294c0.637-0.111,1.109-0.167,1.417-0.167c0.307,0,0.527,0.061,0.661,0.184
		c0.133,0.122,0.2,0.267,0.2,0.433c0,0.167-0.05,0.312-0.15,0.434S26.167,48.426,26.012,48.426z"/>
	<path fill="#FFFFFF" d="M39.438,63.969c0,0.229-0.057,0.418-0.172,0.566c-0.115,0.148-0.284,0.223-0.506,0.223
		c-0.548,0-1.237-2.915-2.066-8.744c-0.119-0.859-0.193-1.355-0.222-1.488c-0.282,2.021-0.496,3.768-0.645,5.238
		c-0.148,1.47-0.222,2.927-0.222,4.371c0,0.163-0.068,0.31-0.206,0.439c-0.137,0.129-0.287,0.194-0.45,0.194
		c-0.556,0-0.833-0.578-0.833-1.733c0-0.711-0.313-3.309-0.938-7.794c-0.626-4.484-1.024-6.938-1.194-7.36
		c0.192-0.362,0.462-0.544,0.811-0.544c0.348,0,0.665,0.789,0.95,2.366c0.285,1.578,0.529,3.49,0.733,5.738
		c0.204,2.248,0.309,3.387,0.316,3.416c0.022-0.207,0.098-0.846,0.228-1.916c0.129-1.07,0.231-1.932,0.305-2.583
		c0.222-1.971,0.333-3.37,0.333-4.2v-0.433c0-0.163,0.061-0.32,0.183-0.473c0.123-0.151,0.261-0.228,0.417-0.228
		c0.541,0,0.811,0.223,0.811,0.667v0.344c0,1.467,0.34,3.589,1.022,6.366c0.296,1.215,0.507,2.188,0.633,2.922
		c0.082-0.837,0.229-2.048,0.444-3.633c0.467-3.451,0.7-6.11,0.7-7.977c0-0.334,0.056-0.576,0.167-0.729
		c0.111-0.151,0.292-0.228,0.544-0.228s0.45,0.06,0.595,0.178c0.145,0.119,0.217,0.271,0.217,0.456c0,0.185-0.078,0.355-0.233,0.511
		c0,2.207-0.287,4.883-0.861,8.027C39.724,59.074,39.438,61.754,39.438,63.969z"/>
	<path fill="#FFFFFF" d="M45.867,48.426l-0.399-0.012c-0.148,0-0.258,0.032-0.328,0.095c-0.07,0.063-0.105,0.188-0.105,0.372
		c0,1.481,0.093,3.7,0.278,6.655c0.185,2.955,0.277,5.174,0.277,6.655v0.877c0.155-0.021,0.312-0.033,0.467-0.033
		c0.629,0,0.944,0.267,0.944,0.8v0.134l-0.566,0.389l-1.545,0.056c-1.311,0-1.966-0.226-1.966-0.678
		c0-0.363,0.229-0.545,0.688-0.545l0.478,0.034c0.223,0,0.333-0.178,0.333-0.534c0-1.17-0.07-2.923-0.211-5.26S44,53.34,44,52.17
		l0.045-2.322c0-0.489-0.019-0.911-0.056-1.267c-0.2,0.066-0.378,0.1-0.533,0.1c-0.355,0-0.533-0.181-0.533-0.544
		c0-0.186,0.114-0.347,0.344-0.483s0.515-0.235,0.855-0.294c0.637-0.111,1.109-0.167,1.417-0.167c0.307,0,0.527,0.061,0.661,0.184
		c0.133,0.122,0.199,0.267,0.199,0.433c0,0.167-0.05,0.312-0.149,0.434S46.023,48.426,45.867,48.426z"/>
	<path fill="#FFFFFF" d="M50.264,55.836l0.022,0.723v0.1c0.059,1.318,0.089,3.296,0.089,5.933v0.578h1.733
		c0.325,0.222,0.488,0.433,0.488,0.633s-0.056,0.365-0.167,0.494c-0.11,0.13-0.226,0.195-0.344,0.195
		c-0.119,0-0.256-0.026-0.411-0.078c-0.126,0.029-0.271,0.044-0.434,0.044l-0.733-0.033c-0.155,0.186-0.35,0.278-0.583,0.278
		s-0.43-0.072-0.589-0.217s-0.239-0.313-0.239-0.506l0.145-1c0-1.726-0.076-4.313-0.228-7.76c-0.151-3.448-0.228-6.035-0.228-7.761
		c0-0.141,0.056-0.254,0.167-0.339c0.11-0.085,0.249-0.128,0.416-0.128s0.318,0.063,0.456,0.189
		c0.137,0.126,0.205,0.281,0.205,0.466L50.264,55.836z"/>
	<path fill="#FFFFFF" d="M55.861,55.836l0.022,0.723v0.1c0.059,1.318,0.089,3.296,0.089,5.933v0.578h1.733
		c0.325,0.222,0.488,0.433,0.488,0.633s-0.056,0.365-0.167,0.494c-0.11,0.13-0.226,0.195-0.344,0.195
		c-0.119,0-0.256-0.026-0.411-0.078c-0.126,0.029-0.271,0.044-0.434,0.044l-0.733-0.033c-0.155,0.186-0.35,0.278-0.583,0.278
		s-0.43-0.072-0.589-0.217s-0.239-0.313-0.239-0.506l0.145-1c0-1.726-0.076-4.313-0.228-7.76c-0.151-3.448-0.228-6.035-0.228-7.761
		c0-0.141,0.056-0.254,0.167-0.339c0.11-0.085,0.249-0.128,0.416-0.128s0.318,0.063,0.456,0.189
		c0.137,0.126,0.205,0.281,0.205,0.466L55.861,55.836z"/>
	<path fill="#FFFFFF" d="M61.785,64.802c-0.233,0-0.427-0.083-0.578-0.25c-0.152-0.167-0.228-0.359-0.228-0.578
		c0-0.218,0.085-0.416,0.255-0.594c0.171-0.178,0.367-0.267,0.589-0.267c0.223,0,0.415,0.089,0.578,0.267s0.244,0.383,0.244,0.616
		s-0.085,0.426-0.255,0.578C62.219,64.726,62.017,64.802,61.785,64.802z"/>
	<path fill="#FFFFFF" d="M67.548,64.802c-0.233,0-0.427-0.083-0.578-0.25c-0.152-0.167-0.228-0.359-0.228-0.578
		c0-0.218,0.085-0.416,0.255-0.594c0.171-0.178,0.367-0.267,0.589-0.267c0.223,0,0.415,0.089,0.578,0.267s0.244,0.383,0.244,0.616
		s-0.085,0.426-0.255,0.578C67.983,64.726,67.781,64.802,67.548,64.802z"/>
	<path fill="#FFFFFF" d="M73.311,64.802c-0.233,0-0.427-0.083-0.578-0.25c-0.152-0.167-0.228-0.359-0.228-0.578
		c0-0.218,0.085-0.416,0.255-0.594c0.171-0.178,0.367-0.267,0.589-0.267c0.223,0,0.415,0.089,0.578,0.267s0.244,0.383,0.244,0.616
		s-0.085,0.426-0.255,0.578C73.746,64.726,73.543,64.802,73.311,64.802z"/>
</g>
</svg>
