<?xml version="1.0" encoding="utf-8"?>
<!-- Generator: Adobe Illustrator 16.0.0, SVG Export Plug-In . SVG Version: 6.00 Build 0)  -->
<!DOCTYPE svg PUBLIC "-//W3C//DTD SVG 1.1//EN" "http://www.w3.org/Graphics/SVG/1.1/DTD/svg11.dtd">
<svg version="1.1" id="Layer_1" xmlns="http://www.w3.org/2000/svg" xmlns:xlink="http://www.w3.org/1999/xlink" x="0px" y="0px"
	 width="30.125px" height="24px" viewBox="2.125 1.625 30.125 24" enable-background="new 2.125 1.625 30.125 24"
	 xml:space="preserve">
<g>
	<path fill="#7F1D78" d="M4.051,7.652l10.796,8.965c0.39,0.361,1.577,1.277,2.495,1.279c0.93-0.002,2.106-0.916,2.445-1.237
		l9.668-8.029l-0.033-0.005c1.824-1.373,2.546-2.637,2.828-3.491V4.75c0-1.657-1.343-3-3-3h-24c-1.648,0-2.983,1.33-2.998,2.975
		C2.391,5.378,2.807,6.432,4.051,7.652z"/>
	<path fill="#7F1D78" d="M21.135,18.166c-0.146,0.141-1.9,1.747-3.79,1.749c0,0-0.001,0-0.002,0c0,0,0,0-0.001,0l0,0
		c-0.001,0-0.001,0-0.002,0c-1.889-0.002-3.645-1.608-3.838-1.792L2.25,8.784V22.75c0,1.657,1.343,3,3,3h24c1.657,0,3-1.343,3-3
		V8.937L21.135,18.166z"/>
</g>
</svg>
