<?xml version="1.0" encoding="utf-8"?>
<!-- Generator: Adobe Illustrator 16.0.0, SVG Export Plug-In . SVG Version: 6.00 Build 0)  -->
<!DOCTYPE svg PUBLIC "-//W3C//DTD SVG 1.1//EN" "http://www.w3.org/Graphics/SVG/1.1/DTD/svg11.dtd">
<svg version="1.1" id="Layer_2" xmlns="http://www.w3.org/2000/svg" xmlns:xlink="http://www.w3.org/1999/xlink" x="0px" y="0px"
	 width="96px" height="96px" viewBox="0 0 96 96" enable-background="new 0 0 96 96" xml:space="preserve">
<g>
	<circle fill="#7F1D78" cx="48.5" cy="48.5" r="43.667"/>
</g>
<g>
	<path fill="#FFFFFF" d="M30.017,31.77l0.178-4.773v-0.165c0-0.863,0.19-1.295,0.571-1.295c0.347,0,0.813,0.804,1.396,2.412
		c1.066,2.92,2.344,7.74,3.834,14.46l0.025,0.127l0.102-9.064v-7.693c0.102-0.432,0.385-0.647,0.851-0.647s0.698,0.338,0.698,1.016
		v0.152c-0.102,0.211-0.152,0.465-0.152,0.762l-0.165,9.61v7.947c0,0.262-0.072,0.521-0.216,0.774s-0.322,0.381-0.533,0.381
		c-0.364,0-1.075-1.784-2.133-5.351s-2.103-7.403-3.136-11.508v8.531c0,0.83,0.062,2.065,0.184,3.707s0.184,2.877,0.184,3.707
		c0,0.161-0.097,0.294-0.292,0.4s-0.442,0.159-0.743,0.159s-0.451-0.135-0.451-0.406l0.127-1.866c0-0.897-0.055-2.353-0.165-4.367
		s-0.165-3.246-0.165-3.694V31.77z"/>
	<path fill="#FFFFFF" d="M42.284,36.746l0.127,5.522v0.774l-0.013,0.724h0.343l0.749-0.025c0.711,0,1.066,0.216,1.066,0.647
		c0,0.22-0.087,0.408-0.26,0.565s-0.375,0.235-0.603,0.235H42.55c-0.787,0-1.291-0.017-1.511-0.051
		c-0.135,0.017-0.241,0.025-0.317,0.025c-0.618,0-0.927-0.195-0.927-0.584c0-0.161,0.051-0.313,0.152-0.457s0.203-0.22,0.305-0.229
		h0.736l0.051-0.343l-0.178-5.522l0.14-5.789c0-0.99-0.042-1.921-0.127-2.793h-0.495l-0.597,0.025c-0.254,0-0.453-0.049-0.597-0.146
		s-0.216-0.281-0.216-0.552c0-0.398,0.427-0.597,1.282-0.597h3.098c0.703,0,1.054,0.182,1.054,0.546
		c0,0.161-0.076,0.309-0.229,0.444s-0.326,0.203-0.521,0.203h-1.333c0.068,0.711,0.102,1.515,0.102,2.412L42.284,36.746z"/>
	<path fill="#FFFFFF" d="M52.265,40.174l0.127,2.755c0,0.855-0.298,1.513-0.895,1.974c-0.596,0.461-1.292,0.692-2.088,0.692
		c-1.202,0-2.074-0.449-2.615-1.346c-0.389-0.635-0.635-1.233-0.736-1.796s-0.173-0.997-0.216-1.301s-0.072-0.715-0.089-1.231
		c-0.034-0.719-0.051-1.299-0.051-1.739v-1.117c0-2.446,0.072-3.993,0.216-4.64s0.309-1.25,0.495-1.809s0.415-0.99,0.686-1.295
		c0.652-0.745,1.405-1.117,2.26-1.117s1.282,0.22,1.282,0.66c0,0.203-0.084,0.37-0.254,0.501s-0.36,0.197-0.571,0.197l-0.546-0.063
		c-0.601,0-1.054,0.592-1.358,1.777c-0.44,1.693-0.66,3.737-0.66,6.132c0,1.633,0.053,2.757,0.159,3.371s0.222,1.128,0.349,1.542
		c0.119,0.423,0.262,0.762,0.432,1.016c0.398,0.601,0.91,0.901,1.536,0.901c0.838,0,1.257-1.379,1.257-4.139v-1.193
		c-0.127-0.068-0.33-0.102-0.609-0.102l-0.508,0.013c-0.601,0-0.901-0.199-0.901-0.597c0-0.246,0.087-0.432,0.26-0.559
		s0.383-0.19,0.628-0.19v0.013h0.355c1.557,0,2.335,0.267,2.335,0.8L52.265,40.174z"/>
	<path fill="#FFFFFF" d="M55.771,29.738l-0.102,6.487c0.313,0.084,0.787,0.127,1.422,0.127h0.939
		c0.042-0.076,0.063-0.355,0.063-0.838s-0.057-1.542-0.172-3.18c-0.113-1.638-0.171-2.871-0.171-3.701
		c0-0.195,0.076-0.357,0.229-0.489s0.296-0.197,0.432-0.197s0.245,0.013,0.33,0.038s0.178,0.059,0.279,0.102
		s0.182,0.072,0.241,0.089c0,2.251,0.082,5.542,0.248,9.871c0.164,4.329,0.247,6.565,0.247,6.709s-0.091,0.286-0.272,0.425
		c-0.183,0.14-0.386,0.209-0.609,0.209c-0.225,0-0.404-0.165-0.54-0.495s-0.227-0.819-0.272-1.466
		c-0.047-0.647-0.079-1.208-0.096-1.682c-0.009-0.203-0.009-0.436,0-0.698c0-0.355,0.004-0.762,0.013-1.219
		c0.017-0.804,0.025-1.27,0.025-1.396v-0.102l0.038-0.749l-0.152-0.241v-0.025c-0.144,0.034-0.301,0.051-0.47,0.051l-1.676-0.241
		v2.983l0.152,4.278c0,0.246-0.063,0.463-0.19,0.654s-0.309,0.286-0.546,0.286c-0.347,0-0.586-0.315-0.718-0.946
		c-0.131-0.63-0.196-1.492-0.196-2.583l0.076-3.961c0-0.821-0.013-1.274-0.038-1.358v-0.127c0.067-0.906,0.102-1.414,0.102-1.523
		l-0.178-5.865c0-0.203,0.072-0.383,0.216-0.54s0.317-0.235,0.521-0.235C55.496,28.189,55.771,28.706,55.771,29.738z"/>
	<path fill="#FFFFFF" d="M63.988,44.973l-0.051-1.993c0-0.008,0.013-0.305,0.038-0.889c-0.067-0.22-0.205-2.175-0.412-5.865
		c-0.208-3.69-0.32-5.946-0.337-6.767c-0.034,0-0.067,0-0.102,0c-1.405-0.025-2.107-0.284-2.107-0.774
		c0-0.161,0.093-0.294,0.279-0.4s0.368-0.159,0.546-0.159l3.529,0.241l0.419-0.013c0.542,0,0.813,0.208,0.813,0.622
		c0,0.211-0.089,0.383-0.267,0.514s-0.377,0.197-0.597,0.197l-1.193-0.178l-0.051,0.267c0,1.642,0.144,4.101,0.432,7.376
		s0.432,5.738,0.432,7.389c0,0.203-0.093,0.383-0.279,0.54s-0.39,0.235-0.609,0.235L63.988,44.973z"/>
</g>
<g>
	<path fill="#FFFFFF" d="M37.19,71.379c-0.533,0-0.8-0.225-0.8-0.673v-3.39c-0.246-0.17-0.688-0.313-1.327-0.432
		c-0.639-0.119-1.208-0.195-1.708-0.229c-0.178,0.305-0.324,0.744-0.438,1.32c-0.114,0.575-0.233,1.155-0.355,1.739
		s-0.286,1.045-0.489,1.384c-0.677,0-1.058-0.174-1.143-0.521c0.237-0.339,0.622-2.069,1.155-5.192s0.971-5.567,1.314-7.332
		s0.713-3.248,1.111-4.449c0.398-1.202,0.779-1.803,1.143-1.803s0.643,0.076,0.838,0.229c0,0.618,0.169,2.29,0.508,5.015
		c0.338,2.725,0.508,4.487,0.508,5.287s0.091,2.129,0.273,3.986c0.182,1.858,0.273,3.252,0.273,4.184
		C38.054,71.087,37.766,71.379,37.19,71.379z M36.099,62.892c-0.152-1.536-0.29-3-0.413-4.393c-0.123-1.392-0.184-2.234-0.184-2.526
		s0.004-0.459,0.013-0.501c-0.271,0.279-0.662,1.832-1.174,4.659c-0.512,2.826-0.785,4.616-0.819,5.37
		c0.719,0.194,1.322,0.292,1.809,0.292s0.832-0.025,1.035-0.076C36.34,65.369,36.251,64.428,36.099,62.892z"/>
	<path fill="#FFFFFF" d="M41.751,55.916l-0.241,5.218v0.698l0.482-0.013c0.838,0,1.257,0.229,1.257,0.686
		c0,0.229-0.093,0.412-0.279,0.552s-0.43,0.21-0.73,0.21s-0.611-0.051-0.933-0.152v7.363c0,0.762-0.224,1.143-0.673,1.143
		c-0.271,0-0.58-0.132-0.927-0.394c0.144-1.549,0.252-3.752,0.324-6.608s0.133-4.725,0.184-5.604v-0.635
		c0.068-1.262,0.102-2.438,0.102-3.529c0-0.246,0.104-0.436,0.311-0.571s0.44-0.203,0.698-0.203s0.535,0.008,0.832,0.025
		c0.305,0.017,0.673,0.059,1.104,0.127c0.982,0.144,1.473,0.444,1.473,0.901c0,0.49-0.44,0.736-1.32,0.736
		c-0.347-0.17-0.8-0.254-1.358-0.254h-0.305V55.916z"/>
	<path fill="#FFFFFF" d="M48.482,70.973l-0.051-1.993c0-0.009,0.013-0.305,0.038-0.889c-0.068-0.221-0.205-2.176-0.413-5.865
		c-0.208-3.69-0.319-5.946-0.336-6.767c-0.034,0-0.068,0-0.102,0c-1.405-0.025-2.107-0.284-2.107-0.774
		c0-0.161,0.093-0.294,0.279-0.4s0.368-0.159,0.546-0.159l3.529,0.241l0.419-0.013c0.542,0,0.813,0.207,0.813,0.622
		c0,0.211-0.089,0.383-0.267,0.514c-0.178,0.132-0.376,0.197-0.597,0.197l-1.193-0.178l-0.051,0.267
		c0,1.642,0.144,4.101,0.432,7.376s0.432,5.738,0.432,7.389c0,0.203-0.093,0.383-0.279,0.539c-0.186,0.157-0.389,0.235-0.609,0.235
		L48.482,70.973z"/>
	<path fill="#FFFFFF" d="M52.701,58.265l-0.141-2.196c0-1.228,0.365-1.841,1.092-1.841c0.467,0,1.102,0.108,1.904,0.323
		c0.805,0.216,1.207,0.493,1.207,0.832c0,0.355-0.254,0.626-0.762,0.813c-0.805-0.271-1.461-0.437-1.969-0.495
		c0.025,0.372,0.039,0.744,0.039,1.117l-0.115,3.732c0,0.017,0.025,0.152,0.076,0.406l0.928-0.038c0.838,0,1.256,0.236,1.256,0.711
		c0,0.186-0.076,0.349-0.229,0.488s-0.344,0.21-0.576,0.21c-0.234,0-0.486-0.018-0.756-0.051h-0.66
		c0.051,0.66,0.076,1.315,0.076,1.968l-0.115,4.71c0,0.973,0.018,1.46,0.051,1.46l1.918-0.063c0.66,0,0.99,0.211,0.99,0.635
		c0,0.262-0.115,0.452-0.344,0.571c-0.229,0.118-0.486,0.178-0.773,0.178h-2.197c-0.229,0-0.436-0.078-0.621-0.235
		c-0.188-0.156-0.283-0.345-0.293-0.564v-0.686l-0.164-4.393L52.701,58.265z"/>
	<path fill="#FFFFFF" d="M59.622,62.683l-0.025,2.818c0,2.293,0.165,4.101,0.495,5.421L59.8,71.62h-0.724l-0.343-0.381
		c0.017-0.779,0.025-1.652,0.025-2.622c0-0.969-0.074-3.04-0.223-6.214c-0.147-3.174-0.222-5.544-0.222-7.109
		c0-0.821,0.288-1.231,0.863-1.231c0.905,0,1.667,0.237,2.285,0.711c0.618,0.474,0.927,1.15,0.927,2.031v1.828
		c0,0.499-0.093,0.954-0.279,1.364c-0.187,0.411-0.402,0.843-0.647,1.295c-0.245,0.453-0.381,0.705-0.406,0.756
		c0.093,0.423,0.258,1.252,0.495,2.488c0.508,2.699,1.07,4.642,1.688,5.827c0.178,0.338,0.267,0.603,0.267,0.793
		s-0.053,0.352-0.158,0.482c-0.106,0.132-0.248,0.197-0.426,0.197c-0.364,0-0.713-0.417-1.047-1.251
		c-0.335-0.833-0.604-1.758-0.807-2.773c-0.618-3.106-0.994-4.816-1.13-5.129H59.622z M59.724,55.027l-0.089,0.368
		c0,0.711,0.017,1.737,0.051,3.078c0.034,1.342,0.051,2.317,0.051,2.927c0.406-0.212,0.734-0.764,0.983-1.657
		c0.25-0.893,0.375-1.576,0.375-2.05c0-0.475-0.013-0.823-0.038-1.048c-0.025-0.224-0.08-0.472-0.165-0.742
		C60.723,55.345,60.333,55.053,59.724,55.027z"/>
</g>
</svg>
