<?xml version="1.0" encoding="utf-8"?>
<!-- Generator: Adobe Illustrator 16.0.0, SVG Export Plug-In . SVG Version: 6.00 Build 0)  -->
<!DOCTYPE svg PUBLIC "-//W3C//DTD SVG 1.1//EN" "http://www.w3.org/Graphics/SVG/1.1/DTD/svg11.dtd">
<svg version="1.1" xmlns="http://www.w3.org/2000/svg" xmlns:xlink="http://www.w3.org/1999/xlink" x="0px" y="0px" width="97px"
	 height="95px" viewBox="0 0 97 95" enable-background="new 0 0 97 95" xml:space="preserve">
<g id="Layer_1">
</g>
<g id="Layer_2">
	<g>
		<path fill="#7F1D78" d="M30.859,86.902L18.634,71.471C13.157,64.773,8.59,60.03,4.933,57.247C4.911,56.2,5.266,55.375,6,54.775
			c1.187-0.97,2.461-1.618,3.823-1.943c1.362-0.326,2.667-0.348,3.912-0.068c2.594,0.592,4.744,1.931,6.448,4.016
			c1.705,2.085,2.745,4.393,3.122,6.925c0.376,2.532-0.033,5.075-1.227,7.629l11.249,12.994c0.965,1.181,0.917,2.206-0.145,3.074
			c-0.39,0.319-0.801,0.406-1.233,0.26C31.518,87.517,31.155,87.264,30.859,86.902z M20.273,69.365
			c0.777-4.02,0.024-7.428-2.26-10.221l-0.018-0.021c-1.306-1.598-2.439-2.538-3.399-2.819c-0.469-0.127-0.841-0.224-1.115-0.289
			c-0.275-0.065-0.735-0.077-1.379-0.038c-0.768,0.049-1.914,0.162-3.435,0.339c1.227,1.501,3.161,3.675,5.803,6.525
			C17.112,65.69,19.046,67.865,20.273,69.365z"/>
		<path fill="#7F1D78" d="M44.479,63.314l2.663,2.205c0.284,0.348,1.13,1.072,2.536,2.17c1.407,1.1,2.281,1.857,2.621,2.274
			l0.035,0.042c0.511,0.626,0.575,1.246,0.191,1.86c-0.672,0.549-1.274,0.879-1.808,0.991c-0.534,0.112-1.028-0.11-1.482-0.666
			c-0.988-1.209-2.66-2.776-5.015-4.7l-5.243,3.243c0.476,1.188,1.096,2.408,1.86,3.662c0.764,1.254,1.286,2.195,1.566,2.824
			c0.582,1.287,0.49,2.242-0.274,2.867c-0.375,0.307-0.811,0.483-1.307,0.53c-0.497,0.046-0.881-0.098-1.153-0.432l-0.19-0.471
			c-3.901-9.17-8.197-17.691-12.89-25.565c-0.128-0.22-0.546-0.827-1.257-1.825c-1.548-2.211-2.336-3.782-2.365-4.709l1.616-1.322
			c0.437-0.357,0.894-0.579,1.369-0.667s0.861,0.05,1.156,0.41c1.773,2.168,4.728,5.121,8.864,8.857
			C40.11,58.631,42.945,61.438,44.479,63.314z M42.673,66.218c-0.435-0.34-1.075-1.027-1.922-2.063
			c-0.847-1.035-1.965-2.267-3.353-3.694c-1.388-1.426-3.04-3.056-4.955-4.889c-1.914-1.831-3.293-3.168-4.136-4.008
			c4.399,8.345,7.587,14.156,9.563,17.434C38.679,68.869,40.279,67.943,42.673,66.218z"/>
		<path fill="#7F1D78" d="M46.179,52.534l3.737,4.667c3.079,3.766,5.81,6.483,8.191,8.154l0.398,1.587l-1.335,1.092l-1.144-0.109
			c-1.015-1.304-2.172-2.751-3.473-4.343c-1.302-1.592-4.22-4.881-8.754-9.87c-4.534-4.987-7.852-8.768-9.954-11.339
			c-1.102-1.349-1.123-2.456-0.061-3.325c1.671-1.366,3.395-2.126,5.171-2.28c1.776-0.153,3.255,0.493,4.437,1.938l2.455,3.002
			c0.671,0.82,1.109,1.708,1.316,2.662c0.208,0.955,0.389,1.99,0.544,3.104c0.155,1.113,0.243,1.73,0.265,1.852
			c0.74,0.556,2.158,1.668,4.255,3.34c4.561,3.667,8.207,6.008,10.938,7.021c0.783,0.289,1.302,0.588,1.558,0.901
			c0.255,0.312,0.373,0.656,0.355,1.031c-0.021,0.375-0.193,0.697-0.521,0.965c-0.672,0.549-1.876,0.391-3.612-0.474
			c-1.735-0.864-3.473-1.978-5.211-3.34c-5.31-4.167-8.301-6.408-8.971-6.717L46.179,52.534z M36.089,39.81l0.33,0.738
			c0.955,1.168,2.364,2.828,4.228,4.979c1.862,2.152,3.203,3.728,4.021,4.729c0.467-0.96,0.33-2.362-0.408-4.205
			c-0.739-1.843-1.425-3.154-2.062-3.932s-1.129-1.332-1.477-1.662c-0.348-0.33-0.782-0.653-1.302-0.971
			C38.357,38.825,37.247,38.932,36.089,39.81z"/>
		<path fill="#7F1D78" d="M69.442,56.228l-2.77-3.196c-0.012-0.014-0.386-0.52-1.123-1.518c-0.42-0.259-3.3-3.263-8.636-9.009
			c-5.337-5.746-8.571-9.281-9.705-10.604c-0.063,0.051-0.125,0.102-0.188,0.153c-2.626,2.077-4.269,2.714-4.928,1.907
			c-0.216-0.265-0.224-0.623-0.021-1.078c0.201-0.454,0.466-0.816,0.794-1.084l6.836-4.928l0.755-0.653
			c0.999-0.816,1.778-0.885,2.335-0.204c0.284,0.348,0.351,0.763,0.198,1.246c-0.152,0.484-0.431,0.893-0.837,1.225l-2.439,1.508
			l0.264,0.514c2.204,2.696,5.771,6.517,10.698,11.461c4.929,4.944,8.501,8.771,10.717,11.482c0.272,0.333,0.342,0.769,0.209,1.306
			c-0.133,0.539-0.403,0.974-0.809,1.306L69.442,56.228z"/>
		<path fill="#7F1D78" d="M81.99,43.325c1.557,1.905,1.812,3.284,0.766,4.139c-0.578,0.473-1.279,0.524-2.103,0.153
			c-0.152-0.918-1.943-3.477-5.375-7.674c-0.625-0.765-1.598-1.778-2.917-3.042c-1.319-1.262-2.238-2.181-2.758-2.752l-0.904-1.105
			c-0.164-0.074-1.584-0.792-4.26-2.151c-6.021-3.031-9.406-5.005-10.157-5.923l-0.187-0.229l0.497-1.59
			c0.995-0.791,3.968,0.455,8.917,3.737c2.161,1.432,3.248,2.155,3.259,2.169c-0.136-0.42-0.756-1.689-1.858-3.802
			c-2.819-5.392-3.706-8.517-2.66-9.373c0.297-0.242,0.634-0.379,1.014-0.41c0.377-0.031,0.675,0.086,0.891,0.35
			c1.159,1.418,2.387,3.851,3.684,7.301c1.297,3.451,2.508,5.897,3.637,7.34L81.99,43.325z"/>
		<path fill="#7F1D78" d="M82.558,27.767l1.7,1.984c1.591,1.945,2.089,3.161,1.495,3.646c-0.328,0.268-0.912,0.167-1.753-0.305
			c-0.842-0.471-1.695-1.236-2.559-2.292l-5.59-7.221L64.164,9.762C63.8,9.317,63.695,8.759,63.85,8.087
			c0.155-0.67,0.443-1.179,0.864-1.523c0.422-0.345,0.829-0.509,1.22-0.493c0.391,0.017,0.706,0.171,0.945,0.463
			c1.863,2.279,4.479,5.822,7.847,10.626C78.095,21.965,80.705,25.501,82.558,27.767z M92.024,38.008
			c0.818,1.001,0.438,2.146-1.139,3.435c-0.359,0.294-0.836,0.436-1.432,0.424c-0.596-0.013-1.095-0.265-1.498-0.758
			s-0.572-1.098-0.506-1.813c0.066-0.715,0.389-1.309,0.966-1.781c0.578-0.472,1.208-0.65,1.889-0.535
			C90.985,37.096,91.56,37.438,92.024,38.008z"/>
	</g>
</g>
</svg>
