<?xml version="1.0" encoding="utf-8"?>
<!-- Generator: Adobe Illustrator 16.0.0, SVG Export Plug-In . SVG Version: 6.00 Build 0)  -->
<!DOCTYPE svg PUBLIC "-//W3C//DTD SVG 1.1//EN" "http://www.w3.org/Graphics/SVG/1.1/DTD/svg11.dtd">
<svg version="1.1" id="Layer_1" xmlns="http://www.w3.org/2000/svg" xmlns:xlink="http://www.w3.org/1999/xlink" x="0px" y="0px"
	 width="30.25px" height="30.083px" viewBox="0 0 30.25 30.083" enable-background="new 0 0 30.25 30.083" xml:space="preserve">
<path fill="#7F1D78" d="M25.246,0.083H5.275c-2.706,0-4.9,2.301-4.9,5.137v19.647c0,2.838,2.195,5.137,4.9,5.137h19.971
	c2.707,0,4.9-2.299,4.9-5.137V5.22C30.146,2.384,27.953,0.083,25.246,0.083z M16.75,24.271c-6.375-2.375-9.964-10.063-9.964-10.063
	c-2.543-4.723,1.162-9.116,2.089-9c1,0.125,2.875,2.625,2.875,2.625C14,10.583,11,11.958,11,11.958c-1.25,0.875-0.25,2.75-0.25,2.75
	s1.042,1.834,2.542,3.334c0.953,0.953,2.581,1.903,2.581,1.903s1.837,1.068,2.757-0.149c0,0,1.484-2.947,4.15-0.598
	c0,0,2.43,1.965,2.518,2.969C25.375,23.063,21.146,26.229,16.75,24.271z"/>
</svg>
