<?xml version="1.0" encoding="utf-8"?>
<!-- Generator: Adobe Illustrator 16.0.0, SVG Export Plug-In . SVG Version: 6.00 Build 0)  -->
<!DOCTYPE svg PUBLIC "-//W3C//DTD SVG 1.1//EN" "http://www.w3.org/Graphics/SVG/1.1/DTD/svg11.dtd">
<svg version="1.1" xmlns="http://www.w3.org/2000/svg" xmlns:xlink="http://www.w3.org/1999/xlink" x="0px" y="0px" width="77.5px"
	 height="77px" viewBox="0 0 77.5 77" enable-background="new 0 0 77.5 77" xml:space="preserve">
<g id="Layer_1">
</g>
<g id="Layer_4">
	<g>
		<circle fill="#7F1D78" cx="38.625" cy="38.375" r="33.875"/>
	</g>
</g>
<g id="Layer_5">
	<g>
		<path fill="#FFFFFF" d="M32.721,21.465l-0.044,2.924l0.199,5.216l0.188,4.075c0,0.739-0.218,1.108-0.653,1.108
			c-0.251,0-0.437-0.119-0.554-0.354c-0.118-0.236-0.178-0.499-0.178-0.787l0.178-3.621c0-0.783-0.052-1.96-0.155-3.533
			s-0.155-2.75-0.155-3.533l0.033-1.982c0-1.085-0.07-1.79-0.21-2.115l-1.229,0.122c-0.192,0-0.364-0.057-0.515-0.172
			c-0.151-0.114-0.228-0.262-0.228-0.443c0-0.181,0.181-0.334,0.543-0.459c0.369-0.133,0.812-0.229,1.329-0.288
			c0.908-0.103,1.672-0.155,2.292-0.155c0.185,0,0.353,0.061,0.504,0.183c0.151,0.122,0.227,0.275,0.227,0.459
			s-0.066,0.331-0.199,0.438s-0.295,0.161-0.487,0.161l-0.808-0.044c-0.104,0-0.182,0.004-0.233,0.011
			C32.669,19.546,32.721,20.476,32.721,21.465z"/>
		<path fill="#FFFFFF" d="M37.569,20.978l-0.089,5.659c0.273,0.074,0.687,0.111,1.24,0.111h0.82c0.036-0.066,0.055-0.31,0.055-0.731
			s-0.05-1.346-0.149-2.774c-0.1-1.428-0.149-2.504-0.149-3.228c0-0.17,0.066-0.312,0.199-0.426s0.259-0.172,0.377-0.172
			s0.214,0.011,0.288,0.033c0.073,0.022,0.154,0.052,0.243,0.089s0.159,0.063,0.211,0.078c0,1.964,0.071,4.833,0.216,8.61
			c0.144,3.776,0.216,5.728,0.216,5.853s-0.08,0.249-0.238,0.371c-0.159,0.122-0.336,0.183-0.531,0.183
			c-0.196,0-0.353-0.144-0.471-0.432c-0.118-0.288-0.198-0.714-0.238-1.279c-0.041-0.565-0.068-1.054-0.083-1.467
			c-0.008-0.177-0.008-0.38,0-0.609c0-0.31,0.004-0.664,0.011-1.063c0.015-0.701,0.022-1.107,0.022-1.218v-0.088l0.033-0.653
			l-0.133-0.21v-0.022c-0.126,0.03-0.263,0.044-0.41,0.044l-1.462-0.21v2.603l0.133,3.732c0,0.214-0.055,0.404-0.166,0.57
			c-0.11,0.166-0.27,0.25-0.476,0.25c-0.303,0-0.512-0.275-0.626-0.825s-0.172-1.301-0.172-2.254l0.066-3.455
			c0-0.716-0.011-1.111-0.033-1.185v-0.11c0.06-0.79,0.089-1.233,0.089-1.329l-0.155-5.116c0-0.177,0.063-0.334,0.188-0.471
			c0.125-0.137,0.276-0.205,0.454-0.205C37.329,19.627,37.569,20.078,37.569,20.978z"/>
		<path fill="#FFFFFF" d="M43.568,23.182l-0.121-1.916c0-1.07,0.316-1.606,0.952-1.606c0.405,0,0.959,0.094,1.661,0.283
			c0.701,0.188,1.052,0.43,1.052,0.725c0,0.31-0.222,0.546-0.664,0.709c-0.702-0.236-1.273-0.38-1.717-0.432
			c0.022,0.325,0.033,0.65,0.033,0.975l-0.1,3.256c0,0.015,0.022,0.133,0.066,0.354l0.809-0.033c0.73,0,1.096,0.207,1.096,0.62
			c0,0.163-0.066,0.305-0.199,0.426c-0.133,0.122-0.301,0.183-0.504,0.183s-0.423-0.015-0.658-0.044h-0.576
			c0.044,0.576,0.066,1.148,0.066,1.716l-0.1,4.108c0,0.849,0.015,1.274,0.044,1.274l1.673-0.056c0.575,0,0.863,0.185,0.863,0.554
			c0,0.229-0.1,0.395-0.299,0.499c-0.199,0.103-0.425,0.155-0.676,0.155h-1.916c-0.199,0-0.38-0.068-0.542-0.205
			c-0.163-0.137-0.248-0.301-0.255-0.493v-0.598l-0.145-3.832L43.568,23.182z"/>
	</g>
	<g>
		<path fill="#FFFFFF" d="M24.118,54.741l0.111-8.096c0-3.559-0.196-6.257-0.587-8.095c0.235-0.339,0.527-0.509,0.874-0.509
			c0.562,0,1.073,0.125,1.534,0.376s0.836,0.583,1.124,0.997c0.599,0.864,0.897,1.85,0.897,2.957s-0.24,2.113-0.72,3.018
			c-0.48,0.904-1.186,1.608-2.115,2.11l0.177,7.065c0,0.627-0.251,0.941-0.753,0.941c-0.185,0-0.321-0.079-0.41-0.238
			C24.163,55.108,24.118,54.933,24.118,54.741z M25.182,46.401c1.151-1.078,1.728-2.359,1.728-3.843v-0.011
			c0-0.849-0.104-1.443-0.311-1.783c-0.104-0.162-0.187-0.29-0.249-0.382s-0.189-0.216-0.382-0.371
			c-0.229-0.185-0.58-0.447-1.052-0.787c0,0.797,0.044,1.994,0.133,3.588S25.182,45.604,25.182,46.401z"/>
		<path fill="#FFFFFF" d="M34.282,50.776l0.244,1.396c0,0.185,0.071,0.635,0.216,1.351c0.144,0.716,0.216,1.185,0.216,1.406v0.022
			c0,0.333-0.126,0.546-0.377,0.643c-0.317,0-0.564-0.052-0.741-0.155c-0.178-0.103-0.267-0.302-0.267-0.598
			c0-0.643-0.11-1.576-0.332-2.802l-2.236-0.333c-0.141,0.502-0.248,1.052-0.321,1.65c-0.074,0.598-0.145,1.034-0.211,1.307
			c-0.133,0.561-0.38,0.841-0.742,0.841c-0.177,0-0.341-0.057-0.492-0.171s-0.228-0.26-0.228-0.438l0.056-0.199
			c1.019-3.935,1.775-7.767,2.271-11.495c0.015-0.104,0.036-0.406,0.066-0.908c0.073-1.107,0.214-1.813,0.421-2.115h0.764
			c0.207,0,0.388,0.048,0.543,0.144c0.155,0.096,0.232,0.24,0.232,0.432c0,1.152,0.153,2.861,0.46,5.127
			C34.129,48.147,34.282,49.779,34.282,50.776z M33.098,51.23c-0.045-0.222-0.066-0.607-0.066-1.157S33,48.84,32.937,48.024
			c-0.063-0.816-0.153-1.765-0.271-2.846c-0.118-1.082-0.2-1.866-0.244-2.353c-0.687,3.802-1.13,6.482-1.329,8.04
			C31.352,51.034,32.02,51.156,33.098,51.23z"/>
		<path fill="#FFFFFF" d="M38.1,47.786l-0.021,2.458c0,2.001,0.144,3.577,0.432,4.729l-0.255,0.609h-0.631l-0.299-0.332
			c0.015-0.679,0.021-1.441,0.021-2.287c0-0.845-0.064-2.652-0.193-5.421s-0.194-4.835-0.194-6.202c0-0.716,0.251-1.074,0.754-1.074
			c0.789,0,1.454,0.207,1.993,0.621c0.539,0.413,0.809,1.004,0.809,1.771v1.595c0,0.436-0.082,0.833-0.244,1.19
			c-0.162,0.358-0.351,0.735-0.564,1.13c-0.215,0.395-0.332,0.615-0.354,0.659c0.081,0.37,0.225,1.093,0.432,2.171
			c0.443,2.355,0.934,4.049,1.473,5.083c0.155,0.295,0.233,0.526,0.233,0.692c0,0.167-0.047,0.307-0.139,0.421
			c-0.093,0.115-0.216,0.172-0.371,0.172c-0.317,0-0.622-0.364-0.914-1.091c-0.291-0.727-0.525-1.534-0.703-2.42
			c-0.539-2.709-0.867-4.201-0.985-4.474H38.1z M38.188,41.108l-0.077,0.321c0,0.62,0.015,1.515,0.044,2.686
			c0.029,1.17,0.045,2.021,0.045,2.553c0.354-0.185,0.64-0.667,0.857-1.445s0.327-1.375,0.327-1.789s-0.011-0.718-0.033-0.914
			s-0.07-0.412-0.145-0.648C39.06,41.385,38.721,41.13,38.188,41.108z"/>
		<path fill="#FFFFFF" d="M44.676,55.018l-0.044-1.739c0-0.007,0.011-0.266,0.033-0.775c-0.06-0.192-0.179-1.897-0.359-5.116
			c-0.182-3.219-0.279-5.187-0.294-5.903c-0.029,0-0.06,0-0.089,0c-1.226-0.022-1.838-0.247-1.838-0.675
			c0-0.14,0.081-0.256,0.243-0.349c0.163-0.092,0.321-0.138,0.477-0.138l3.078,0.21l0.366-0.011c0.472,0,0.708,0.181,0.708,0.542
			c0,0.185-0.077,0.334-0.232,0.449c-0.154,0.115-0.328,0.171-0.521,0.171l-1.041-0.155l-0.044,0.232
			c0,1.433,0.125,3.577,0.377,6.434c0.251,2.857,0.376,5.006,0.376,6.445c0,0.177-0.081,0.334-0.243,0.471
			c-0.163,0.137-0.34,0.205-0.532,0.205L44.676,55.018z"/>
		<path fill="#FFFFFF" d="M52.061,54.176c0,1.012-0.248,1.517-0.742,1.517c-0.273,0-0.483-0.166-0.631-0.499
			c0.169-0.332,0.254-1.613,0.254-3.843c0-0.406-0.04-0.981-0.121-1.728c-0.082-0.746-0.13-1.277-0.145-1.595v-0.587
			c-0.029-0.066-0.266-0.665-0.709-1.794c-1.004-2.532-1.506-4.042-1.506-4.529v-0.122l0.51-0.376
			c0.465,0.007,1.019,1.178,1.661,3.511c0.28,1.019,0.421,1.532,0.421,1.539c0.059-0.169,0.177-0.734,0.354-1.694
			c0.45-2.451,0.923-3.677,1.417-3.677c0.141,0,0.268,0.044,0.382,0.133c0.115,0.088,0.172,0.203,0.172,0.343
			c0,0.753-0.216,1.848-0.647,3.283c-0.432,1.436-0.655,2.531-0.67,3.284V54.176z"/>
	</g>
</g>
</svg>
