<?xml version="1.0" encoding="utf-8"?>
<!-- Generator: Adobe Illustrator 16.0.0, SVG Export Plug-In . SVG Version: 6.00 Build 0)  -->
<!DOCTYPE svg PUBLIC "-//W3C//DTD SVG 1.1//EN" "http://www.w3.org/Graphics/SVG/1.1/DTD/svg11.dtd">
<svg version="1.1" id="Layer_1" xmlns="http://www.w3.org/2000/svg" xmlns:xlink="http://www.w3.org/1999/xlink" x="0px" y="0px"
	 width="167.474px" height="160.947px" viewBox="0 0 167.474 160.947" enable-background="new 0 0 167.474 160.947"
	 xml:space="preserve">
<path fill="#FFFFFF" d="M129.931,67.931c0-1.332-0.078-1.89-0.138-2.121c-0.615-11.099-9.809-19.908-21.06-19.908
	c-9.547,0-17.606,6.345-20.207,15.046c-2.601-8.701-10.66-15.046-20.207-15.046c-11.251,0-20.445,8.81-21.06,19.908
	c-0.061,0.231-0.138,0.789-0.138,2.121c0,2.182-0.935,15.69,18.185,35.537c6.304,7.135,10.287,9.871,15.56,18.656l0.023-0.002
	c1.227,3.013,4.148,5.153,7.582,5.24v0.003c0.019,0,0.037-0.001,0.056-0.002c0.019,0.001,0.037,0.002,0.056,0.002v-0.003
	c3.433-0.087,6.354-2.228,7.582-5.24l0.023,0.002c5.272-8.785,9.256-11.521,15.56-18.656
	C130.866,83.621,129.931,70.112,129.931,67.931z"/>
</svg>
