<?xml version="1.0" encoding="utf-8"?>
<!-- Generator: Adobe Illustrator 16.0.0, SVG Export Plug-In . SVG Version: 6.00 Build 0)  -->
<!DOCTYPE svg PUBLIC "-//W3C//DTD SVG 1.1//EN" "http://www.w3.org/Graphics/SVG/1.1/DTD/svg11.dtd">
<svg version="1.1" id="Layer_1" xmlns="http://www.w3.org/2000/svg" xmlns:xlink="http://www.w3.org/1999/xlink" x="0px" y="0px"
	 width="66px" height="68px" viewBox="0 0 66 68" enable-background="new 0 0 66 68" xml:space="preserve">
<circle fill="#FFFFFF" cx="33.5" cy="35.5" r="29.167"/>
<g>
	<path fill="#7F1D78" d="M8.744,38.268c-0.23-0.04-0.409-0.15-0.533-0.331c-0.124-0.181-0.169-0.373-0.134-0.576
		c0.035-0.203,0.151-0.373,0.349-0.51c0.198-0.136,0.407-0.186,0.627-0.147s0.397,0.153,0.532,0.347
		c0.134,0.193,0.181,0.398,0.144,0.615c-0.038,0.217-0.152,0.382-0.347,0.494C9.189,38.271,8.977,38.307,8.744,38.268z"/>
	<path fill="#7F1D78" d="M13.654,39.11c-0.231-0.04-0.41-0.149-0.534-0.331c-0.123-0.181-0.168-0.373-0.133-0.576
		c0.035-0.203,0.15-0.373,0.349-0.51c0.197-0.136,0.406-0.186,0.626-0.147c0.222,0.038,0.398,0.153,0.532,0.347
		s0.182,0.398,0.145,0.615c-0.038,0.217-0.153,0.382-0.347,0.494C14.098,39.114,13.886,39.15,13.654,39.11z"/>
	<path fill="#7F1D78" d="M18.563,39.953c-0.23-0.04-0.41-0.15-0.533-0.331c-0.124-0.181-0.169-0.373-0.134-0.576
		c0.035-0.203,0.151-0.373,0.349-0.51c0.198-0.136,0.407-0.186,0.627-0.147s0.397,0.153,0.532,0.347
		c0.134,0.193,0.181,0.398,0.144,0.615c-0.038,0.217-0.152,0.382-0.347,0.494C19.007,39.957,18.795,39.992,18.563,39.953z"/>
	<path fill="#7F1D78" d="M22.149,39.611l1.406-7.536c0.57-3.321,0.808-5.873,0.713-7.656c0.289-0.276,0.607-0.386,0.953-0.326
		c0.56,0.097,1.048,0.302,1.468,0.614c0.419,0.313,0.74,0.688,0.959,1.122c0.458,0.909,0.598,1.88,0.421,2.913
		s-0.579,1.932-1.2,2.693c-0.624,0.762-1.439,1.298-2.446,1.607l-0.956,6.625c-0.101,0.586-0.401,0.835-0.901,0.749
		c-0.185-0.031-0.307-0.129-0.37-0.292C22.134,39.962,22.118,39.791,22.149,39.611z M24.543,32.01
		c1.32-0.809,2.099-1.905,2.336-3.29l0.002-0.011c0.136-0.792,0.129-1.364-0.023-1.718c-0.078-0.168-0.139-0.302-0.187-0.398
		c-0.049-0.097-0.155-0.233-0.321-0.412c-0.198-0.211-0.506-0.516-0.922-0.913c-0.128,0.744-0.275,1.867-0.442,3.371
		C24.819,30.142,24.671,31.267,24.543,32.01z"/>
	<path fill="#7F1D78" d="M32.072,37.506l0.019,1.344c-0.029,0.172-0.029,0.604,0,1.298c0.029,0.692,0.025,1.143-0.011,1.349
		l-0.003,0.021c-0.053,0.311-0.213,0.488-0.478,0.535c-0.316-0.055-0.554-0.145-0.714-0.271s-0.216-0.328-0.169-0.604
		c0.103-0.6,0.143-1.49,0.118-2.672l-2.174-0.692c-0.221,0.444-0.417,0.939-0.586,1.485c-0.169,0.545-0.308,0.939-0.418,1.183
		c-0.222,0.501-0.514,0.721-0.874,0.659c-0.177-0.03-0.331-0.111-0.463-0.245c-0.132-0.132-0.185-0.281-0.157-0.446l0.089-0.177
		c1.644-3.498,3.012-6.945,4.103-10.341c0.031-0.093,0.102-0.372,0.212-0.836c0.25-1.021,0.503-1.654,0.758-1.902l0.762,0.131
		c0.205,0.035,0.378,0.111,0.517,0.228c0.14,0.116,0.193,0.264,0.162,0.442c-0.185,1.075-0.306,2.696-0.362,4.864
		C32.341,35.026,32.232,36.575,32.072,37.506z M30.819,37.727c-0.008-0.214,0.031-0.578,0.119-1.091
		c0.088-0.514,0.167-1.156,0.235-1.929c0.068-0.771,0.129-1.673,0.186-2.702s0.101-1.776,0.134-2.238
		c-1.292,3.431-2.164,5.856-2.612,7.276C29.111,37.246,29.756,37.474,30.819,37.727z"/>
	<path fill="#7F1D78" d="M35.519,35.225l-0.416,2.291c-0.32,1.867-0.431,3.362-0.328,4.486l-0.352,0.525l-0.629-0.107l-0.245-0.362
		c0.125-0.631,0.252-1.341,0.388-2.13c0.136-0.789,0.36-2.486,0.676-5.093c0.315-2.605,0.582-4.546,0.8-5.821
		c0.115-0.668,0.423-0.959,0.923-0.873c0.786,0.135,1.415,0.441,1.887,0.92c0.469,0.478,0.644,1.075,0.521,1.791l-0.256,1.489
		c-0.069,0.406-0.214,0.763-0.433,1.068c-0.22,0.307-0.468,0.626-0.744,0.958s-0.43,0.517-0.457,0.555
		c0.021,0.358,0.048,1.059,0.081,2.1c0.064,2.273,0.281,3.938,0.653,4.995c0.107,0.303,0.147,0.532,0.121,0.687
		c-0.027,0.154-0.096,0.277-0.205,0.369c-0.111,0.091-0.244,0.123-0.398,0.097c-0.316-0.055-0.561-0.446-0.734-1.175
		c-0.175-0.729-0.278-1.521-0.314-2.379c-0.103-2.62-0.191-4.068-0.264-4.344L35.519,35.225z M36.677,29.007l-0.128,0.286
		c-0.1,0.58-0.229,1.418-0.387,2.515c-0.158,1.098-0.279,1.894-0.364,2.39c0.382-0.111,0.745-0.512,1.086-1.202
		c0.342-0.689,0.546-1.228,0.612-1.613s0.104-0.671,0.113-0.858c0.01-0.187-0.004-0.396-0.039-0.629
		C37.501,29.415,37.203,29.119,36.677,29.007z"/>
	<path fill="#7F1D78" d="M40.075,42.955l0.233-1.631c0.002-0.007,0.054-0.246,0.158-0.718c-0.028-0.189,0.125-1.802,0.461-4.836
		c0.335-3.036,0.553-4.889,0.654-5.56c-0.031-0.006-0.061-0.011-0.09-0.016c-1.217-0.229-1.791-0.545-1.723-0.944
		c0.022-0.131,0.122-0.226,0.299-0.284c0.176-0.059,0.342-0.074,0.497-0.048l3.032,0.723l0.365,0.053
		c0.471,0.081,0.679,0.29,0.621,0.628c-0.03,0.172-0.131,0.298-0.305,0.378c-0.173,0.081-0.355,0.104-0.547,0.071l-1.012-0.322
		l-0.081,0.209c-0.229,1.337-0.448,3.36-0.655,6.069c-0.207,2.71-0.427,4.736-0.657,6.08c-0.028,0.165-0.136,0.298-0.319,0.397
		s-0.371,0.133-0.563,0.101L40.075,42.955z"/>
	<path fill="#7F1D78" d="M46.729,43.288c-0.162,0.944-0.489,1.374-0.982,1.289c-0.272-0.047-0.456-0.237-0.549-0.572
		c0.222-0.281,0.513-1.462,0.87-3.544c0.064-0.379,0.115-0.923,0.154-1.633s0.076-1.214,0.113-1.513l0.094-0.548
		c-0.019-0.067-0.158-0.666-0.419-1.796c-0.595-2.535-0.853-4.029-0.774-4.484l0.02-0.114l0.567-0.264
		c0.463,0.087,0.827,1.273,1.092,3.561c0.117,0.998,0.175,1.502,0.173,1.509c0.086-0.148,0.294-0.656,0.625-1.521
		c0.842-2.21,1.509-3.273,2.002-3.188c0.139,0.023,0.26,0.087,0.358,0.188c0.101,0.103,0.138,0.22,0.116,0.351
		c-0.121,0.703-0.512,1.688-1.172,2.953c-0.661,1.267-1.058,2.25-1.193,2.95L46.729,43.288z"/>
	<path fill="#7F1D78" d="M50.643,44.843c-0.086,0.496-0.5,0.681-1.242,0.554c-0.17-0.029-0.324-0.133-0.465-0.309
		c-0.139-0.177-0.188-0.388-0.146-0.632s0.172-0.449,0.389-0.614c0.218-0.165,0.463-0.225,0.735-0.178s0.474,0.185,0.604,0.413
		S50.69,44.561,50.643,44.843z M51.251,39.446L51.1,40.453c-0.165,0.965-0.387,1.423-0.667,1.375
		c-0.154-0.026-0.267-0.224-0.336-0.59c-0.069-0.367-0.059-0.812,0.031-1.335l0.689-3.489l1.082-6.964
		c0.038-0.221,0.17-0.396,0.396-0.522c0.227-0.128,0.439-0.176,0.639-0.142c0.197,0.034,0.342,0.111,0.432,0.229
		c0.088,0.117,0.122,0.249,0.098,0.395c-0.194,1.129-0.563,2.804-1.107,5.023C51.812,36.652,51.443,38.323,51.251,39.446z"/>
	<path fill="#7F1D78" d="M53.797,45.385c-0.085,0.496-0.5,0.681-1.242,0.553c-0.17-0.029-0.322-0.132-0.463-0.309
		c-0.14-0.177-0.189-0.387-0.147-0.632c0.042-0.244,0.171-0.449,0.39-0.614c0.217-0.164,0.462-0.224,0.733-0.177
		c0.272,0.047,0.475,0.185,0.606,0.412C53.805,44.848,53.846,45.103,53.797,45.385z M54.406,39.988l-0.15,1.006
		c-0.166,0.966-0.389,1.424-0.669,1.375c-0.153-0.026-0.265-0.223-0.335-0.589c-0.07-0.367-0.059-0.813,0.031-1.336l0.688-3.488
		l1.083-6.964c0.037-0.221,0.17-0.396,0.396-0.523c0.226-0.127,0.439-0.175,0.637-0.141c0.199,0.034,0.342,0.11,0.433,0.229
		c0.089,0.118,0.121,0.25,0.097,0.395c-0.194,1.13-0.563,2.805-1.106,5.023C54.966,37.194,54.599,38.865,54.406,39.988z"/>
</g>
</svg>
