<?xml version="1.0" encoding="utf-8"?>
<!-- Generator: Adobe Illustrator 16.0.0, SVG Export Plug-In . SVG Version: 6.00 Build 0)  -->
<!DOCTYPE svg PUBLIC "-//W3C//DTD SVG 1.1//EN" "http://www.w3.org/Graphics/SVG/1.1/DTD/svg11.dtd">
<svg version="1.1" id="Layer_2" xmlns="http://www.w3.org/2000/svg" xmlns:xlink="http://www.w3.org/1999/xlink" x="0px" y="0px"
	 width="115.333px" height="116.667px" viewBox="0 0 115.333 116.667" enable-background="new 0 0 115.333 116.667"
	 xml:space="preserve">
<g>
	<circle fill="#7F1D78" cx="58.666" cy="58.667" r="50.334"/>
</g>
<g>
	<path fill="#FFFFFF" d="M44.816,89.007l-3.07-13.583c-0.344-1.363-1.076-3.324-2.193-5.883c-1.117-2.558-1.883-4.648-2.293-6.273
		s-1.189-3.531-2.334-5.72c-1.146-2.188-2.295-4.128-3.447-5.819c-3.031-4.432-4.982-8.374-5.855-11.828
		c-0.086-0.34,0.041-0.681,0.377-1.02c0.338-0.34,0.723-0.563,1.154-0.672c0.432-0.109,1.027,0.308,1.785,1.252
		c0.758,0.945,1.553,2.195,2.379,3.75c0.83,1.556,1.629,3.118,2.4,4.688c0.771,1.57,1.502,3.096,2.191,4.578
		c0.688,1.481,1.158,2.433,1.41,2.853c-0.014-0.433-0.15-1.431-0.414-2.996c-0.262-1.565-0.518-3.175-0.768-4.829
		c-0.23-1.682-0.418-3.375-0.559-5.08c-0.334-3.904,0.119-6.013,1.357-6.326c1.238-0.313,1.92-0.219,2.047,0.28
		c0.66,2.613,1.088,6.651,1.285,12.113c0.195,5.462,0.633,9.534,1.311,12.216l0.406,2.472l0.268,1.057l5.053,18.413l1.119,3.416
		l0.396,1.568c0.154,0.613,0.047,1.166-0.324,1.658c-0.371,0.493-0.83,0.809-1.375,0.946s-1.037,0.087-1.473-0.153
		C45.217,89.843,44.938,89.485,44.816,89.007z"/>
	<path fill="#FFFFFF" d="M56.842,59.678l-1.756,0.371c-0.682,0.172-1.115,0.463-1.303,0.873l5.445,21.541
		c2.352-0.739,3.631-1.135,3.834-1.187c2.66-0.672,4.143-0.395,4.453,0.833l0.061,0.238c-0.156,0.717-0.578,1.343-1.266,1.879
		c-0.686,0.536-1.318,0.901-1.898,1.097c-0.58,0.194-1.334,0.409-2.266,0.646l-2.182,0.551c-1.727,0.438-2.881,0.366-3.463-0.213
		c-0.262-0.271-0.459-0.669-0.592-1.191L45.658,44.555c-0.201-0.795-0.658-1.937-1.373-3.424c-0.715-1.488-1.176-2.641-1.383-3.459
		l-0.061-0.238c0.453-1.468,0.824-2.432,1.119-2.893l5.025-1.924c0.705-0.178,1.469-0.147,2.289,0.092
		c0.822,0.239,1.32,0.7,1.492,1.382c0.35,1.386-0.531,2.347-2.645,2.88l-2.027,0.44c-0.342,0.086-0.588,0.161-0.742,0.224
		l3.457,11.383c0.236,0.932,0.523,2.304,0.859,4.116c0.338,1.813,0.609,3.128,0.816,3.945c0.238-0.108,0.559-0.273,0.963-0.497
		c0.891-0.49,1.604-0.804,2.137-0.938c0.535-0.136,1.061-0.063,1.578,0.218c0.518,0.279,0.846,0.692,0.984,1.238
		c0.139,0.545,0.092,1.076-0.141,1.594S57.387,59.541,56.842,59.678z"/>
	<path fill="#FFFFFF" d="M70.051,82.666c-0.316-1.25,0.049-2.007,1.094-2.271c0.523-0.132,1.254-0.13,2.195,0.007
		c0.941,0.138,1.725,0.127,2.35-0.031s1.201-0.727,1.727-1.705c0.525-0.979,0.844-2.111,0.955-3.396
		c0.232-2.621,0.102-4.903-0.389-6.846c-0.492-1.943-1.359-3.941-2.604-5.996s-2.604-3.936-4.074-5.643s-2.953-3.412-4.447-5.113
		c-3.541-4.061-5.785-8.014-6.732-11.859c-0.941-3.631-0.516-6.772,1.281-9.426c0.951-1.401,2.256-2.311,3.914-2.73
		c0.842-0.212,1.717-0.186,2.631,0.078c0.912,0.266,1.623,0.732,2.131,1.402l-0.814,1.801c-1.158,0.293-2.125,0.295-2.898,0.008
		c-0.84,0.309-1.486,0.907-1.939,1.795c-0.82,1.634-0.98,3.434-0.484,5.398c0.496,1.966,1.23,3.817,2.201,5.555
		c0.971,1.736,2.018,3.248,3.141,4.536c1.123,1.287,2.336,2.686,3.635,4.194c1.324,1.503,2.561,2.955,3.713,4.355
		c2.68,3.239,4.559,6.994,5.639,11.267c0.781,2.993,0.75,6.071-0.094,9.234c-0.395,1.502-1.121,2.839-2.178,4.013
		c-1.057,1.175-2.369,1.959-3.938,2.355c-1.682,0.426-3.068,0.51-4.16,0.254S70.195,83.233,70.051,82.666z"/>
	<path fill="#FFFFFF" d="M88.383,59.211l0.904,3.289c0.805,3.181,0.775,4.881-0.088,5.1c-0.479,0.12-1.059-0.338-1.744-1.373
		c-0.684-1.035-1.246-2.417-1.682-4.145l-2.648-11.623l-6.129-22.818c-0.186-0.727-0.037-1.436,0.441-2.124
		c0.479-0.689,1.023-1.111,1.639-1.267c0.613-0.155,1.125-0.109,1.539,0.137c0.412,0.246,0.68,0.607,0.799,1.085
		c0.943,3.727,2.105,9.355,3.49,16.887C86.287,49.89,87.447,55.507,88.383,59.211z M93.793,76.591
		c0.412,1.637-0.527,2.744-2.822,3.325c-0.523,0.131-1.102,0.018-1.736-0.342s-1.055-0.942-1.258-1.749
		c-0.205-0.807-0.104-1.605,0.301-2.396s1.027-1.293,1.867-1.506c0.842-0.212,1.6-0.054,2.277,0.477
		C93.1,74.929,93.557,75.66,93.793,76.591z"/>
</g>
</svg>
